solid fast_trimesh STL file
facet normal 0 0 -0.0302488
outer loop
vertex 0.809017 0.587785 0
vertex 0.951057 0.309017 0
vertex 1 0 0
endloop
endfacet
facet normal 0 0 -0.0877853
outer loop
vertex 0.587785 0.809017 0
vertex 0.809017 0.587785 0
vertex 1 0 0
endloop
endfacet
facet normal 0 0 -0.166977
outer loop
vertex 0.309017 0.951057 0
vertex 0.587785 0.809017 0
vertex 1 0 0
endloop
endfacet
facet normal 0 0 -0.260074
outer loop
vertex -4.37114e-08 1 0
vertex 0.309017 0.951057 0
vertex 1 0 0
endloop
endfacet
facet normal 0 0 -0.357961
outer loop
vertex -0.309017 0.951056 0
vertex -4.37114e-08 1 0
vertex 1 0 0
endloop
endfacet
facet normal 0 0 -0.451056
outer loop
vertex -0.587785 0.809017 0
vertex -0.309017 0.951056 0
vertex 1 0 0
endloop
endfacet
facet normal 0 0 -0.530249
outer loop
vertex -0.809017 0.587785 0
vertex -0.587785 0.809017 0
vertex 1 0 0
endloop
endfacet
facet normal 0 0 -0.587785
outer loop
vertex -0.951056 0.309017 0
vertex -0.809017 0.587785 0
vertex 1 0 0
endloop
endfacet
facet normal 0 0 -0.618034
outer loop
vertex -1 -8.74228e-08 0
vertex -0.951056 0.309017 0
vertex 1 0 0
endloop
endfacet
facet normal 0 0 -0.618034
outer loop
vertex -0.951057 -0.309017 0
vertex -1 -8.74228e-08 0
vertex 1 0 0
endloop
endfacet
facet normal 0 0 -0.587786
outer loop
vertex -0.809017 -0.587785 0
vertex -0.951057 -0.309017 0
vertex 1 0 0
endloop
endfacet
facet normal 0 0 -0.530249
outer loop
vertex -0.587785 -0.809017 0
vertex -0.809017 -0.587785 0
vertex 1 0 0
endloop
endfacet
facet normal 0 0 -0.451056
outer loop
vertex -0.309017 -0.951056 0
vertex -0.587785 -0.809017 0
vertex 1 0 0
endloop
endfacet
facet normal 0 0 -0.357961
outer loop
vertex 1.19249e-08 -1 0
vertex -0.309017 -0.951056 0
vertex 1 0 0
endloop
endfacet
facet normal -0 0 -0.260074
outer loop
vertex 0.309017 -0.951056 0
vertex 1.19249e-08 -1 0
vertex 1 0 0
endloop
endfacet
facet normal -0 0 -0.166977
outer loop
vertex 0.587785 -0.809017 0
vertex 0.309017 -0.951056 0
vertex 1 0 0
endloop
endfacet
facet normal -0 0 -0.0877853
outer loop
vertex 0.809017 -0.587785 0
vertex 0.587785 -0.809017 0
vertex 1 0 0
endloop
endfacet
facet normal -0 0 -0.0302488
outer loop
vertex 0.951057 -0.309017 0
vertex 0.809017 -0.587785 0
vertex 1 0 0
endloop
endfacet
facet normal 0 0 0.0302488
outer loop
vertex 1 0 2
vertex 0.951057 0.309017 2
vertex 0.809017 0.587785 2
endloop
endfacet
facet normal 0 0 0.0877853
outer loop
vertex 1 0 2
vertex 0.809017 0.587785 2
vertex 0.587785 0.809017 2
endloop
endfacet
facet normal 0 0 0.166978
outer loop
vertex 1 0 2
vertex 0.587785 0.809017 2
vertex 0.309017 0.951057 2
endloop
endfacet
facet normal 0 0 0.260073
outer loop
vertex 1 0 2
vertex 0.309017 0.951057 2
vertex -4.37114e-08 1 2
endloop
endfacet
facet normal 0 0 0.357961
outer loop
vertex 1 0 2
vertex -4.37114e-08 1 2
vertex -0.309017 0.951056 2
endloop
endfacet
facet normal 0 0 0.451056
outer loop
vertex 1 0 2
vertex -0.309017 0.951056 2
vertex -0.587785 0.809017 2
endloop
endfacet
facet normal 0 0 0.530249
outer loop
vertex 1 0 2
vertex -0.587785 0.809017 2
vertex -0.809017 0.587785 2
endloop
endfacet
facet normal 0 0 0.587785
outer loop
vertex 1 0 2
vertex -0.809017 0.587785 2
vertex -0.951056 0.309017 2
endloop
endfacet
facet normal 0 0 0.618034
outer loop
vertex 1 0 2
vertex -0.951056 0.309017 2
vertex -1 -8.74228e-08 2
endloop
endfacet
facet normal 0 0 0.618034
outer loop
vertex 1 0 2
vertex -1 -8.74228e-08 2
vertex -0.951057 -0.309017 2
endloop
endfacet
facet normal 0 0 0.587785
outer loop
vertex 1 0 2
vertex -0.951057 -0.309017 2
vertex -0.809017 -0.587785 2
endloop
endfacet
facet normal 0 0 0.530249
outer loop
vertex 1 0 2
vertex -0.809017 -0.587785 2
vertex -0.587785 -0.809017 2
endloop
endfacet
facet normal 0 0 0.451056
outer loop
vertex 1 0 2
vertex -0.587785 -0.809017 2
vertex -0.309017 -0.951056 2
endloop
endfacet
facet normal 0 0 0.357961
outer loop
vertex 1 0 2
vertex -0.309017 -0.951056 2
vertex 1.19249e-08 -1 2
endloop
endfacet
facet normal 0 0 0.260074
outer loop
vertex 1 0 2
vertex 1.19249e-08 -1 2
vertex 0.309017 -0.951056 2
endloop
endfacet
facet normal 0 0 0.166977
outer loop
vertex 1 0 2
vertex 0.309017 -0.951056 2
vertex 0.587785 -0.809017 2
endloop
endfacet
facet normal 0 0 0.0877853
outer loop
vertex 1 0 2
vertex 0.587785 -0.809017 2
vertex 0.809017 -0.587785 2
endloop
endfacet
facet normal 0 0 0.0302488
outer loop
vertex 1 0 2
vertex 0.809017 -0.587785 2
vertex 0.951057 -0.309017 2
endloop
endfacet
facet normal 0.618034 0.0978869 0
outer loop
vertex 1 0 0
vertex 0.951057 0.309017 0
vertex 0.951057 0.309017 2
endloop
endfacet
facet normal 0.618034 0.0978869 -0
outer loop
vertex 1 0 0
vertex 0.951057 0.309017 2
vertex 1 0 2
endloop
endfacet
facet normal 0.557536 0.284079 0
outer loop
vertex 0.951057 0.309017 0
vertex 0.809017 0.587785 0
vertex 0.809017 0.587785 2
endloop
endfacet
facet normal 0.557536 0.284079 -0
outer loop
vertex 0.951057 0.309017 0
vertex 0.809017 0.587785 2
vertex 0.951057 0.309017 2
endloop
endfacet
facet normal -1.17557 -0.381966 0
outer loop
vertex 0.809017 0.587785 0
vertex 1 0 0
vertex 1 0 2
endloop
endfacet
facet normal -1.17557 -0.381966 0
outer loop
vertex 0.809017 0.587785 0
vertex 1 0 2
vertex 0.809017 0.587785 2
endloop
endfacet
facet normal 1.17557 0.381966 0
outer loop
vertex 1 0 0
vertex 0.809017 0.587785 0
vertex 0.809017 0.587785 2
endloop
endfacet
facet normal 1.17557 0.381966 -0
outer loop
vertex 1 0 0
vertex 0.809017 0.587785 2
vertex 1 0 2
endloop
endfacet
facet normal 0.442464 0.442464 0
outer loop
vertex 0.809017 0.587785 0
vertex 0.587785 0.809017 0
vertex 0.587785 0.809017 2
endloop
endfacet
facet normal 0.442464 0.442464 -0
outer loop
vertex 0.809017 0.587785 0
vertex 0.587785 0.809017 2
vertex 0.809017 0.587785 2
endloop
endfacet
facet normal -1.61803 -0.82443 0
outer loop
vertex 0.587785 0.809017 0
vertex 1 0 0
vertex 1 0 2
endloop
endfacet
facet normal -1.61803 -0.82443 0
outer loop
vertex 0.587785 0.809017 0
vertex 1 0 2
vertex 0.587785 0.809017 2
endloop
endfacet
facet normal 1.61803 0.82443 0
outer loop
vertex 1 0 0
vertex 0.587785 0.809017 0
vertex 0.587785 0.809017 2
endloop
endfacet
facet normal 1.61803 0.82443 -0
outer loop
vertex 1 0 0
vertex 0.587785 0.809017 2
vertex 1 0 2
endloop
endfacet
facet normal 0.284079 0.557537 0
outer loop
vertex 0.587785 0.809017 0
vertex 0.309017 0.951057 0
vertex 0.309017 0.951057 2
endloop
endfacet
facet normal 0.284079 0.557537 -0
outer loop
vertex 0.587785 0.809017 0
vertex 0.309017 0.951057 2
vertex 0.587785 0.809017 2
endloop
endfacet
facet normal -1.90211 -1.38197 0
outer loop
vertex 0.309017 0.951057 0
vertex 1 0 0
vertex 1 0 2
endloop
endfacet
facet normal -1.90211 -1.38197 0
outer loop
vertex 0.309017 0.951057 0
vertex 1 0 2
vertex 0.309017 0.951057 2
endloop
endfacet
facet normal 1.90211 1.38197 0
outer loop
vertex 1 0 0
vertex 0.309017 0.951057 0
vertex 0.309017 0.951057 2
endloop
endfacet
facet normal 1.90211 1.38197 -0
outer loop
vertex 1 0 0
vertex 0.309017 0.951057 2
vertex 1 0 2
endloop
endfacet
facet normal 0.0978869 0.618034 0
outer loop
vertex 0.309017 0.951057 0
vertex -4.37114e-08 1 0
vertex -4.37114e-08 1 2
endloop
endfacet
facet normal 0.0978869 0.618034 -0
outer loop
vertex 0.309017 0.951057 0
vertex -4.37114e-08 1 2
vertex 0.309017 0.951057 2
endloop
endfacet
facet normal -2 -2 0
outer loop
vertex -4.37114e-08 1 0
vertex 1 0 0
vertex 1 0 2
endloop
endfacet
facet normal -2 -2 0
outer loop
vertex -4.37114e-08 1 0
vertex 1 0 2
vertex -4.37114e-08 1 2
endloop
endfacet
facet normal 2 2 0
outer loop
vertex 1 0 0
vertex -4.37114e-08 1 0
vertex -4.37114e-08 1 2
endloop
endfacet
facet normal 2 2 -0
outer loop
vertex 1 0 0
vertex -4.37114e-08 1 2
vertex 1 0 2
endloop
endfacet
facet normal -0.097887 0.618034 0
outer loop
vertex -4.37114e-08 1 0
vertex -0.309017 0.951056 0
vertex -0.309017 0.951056 2
endloop
endfacet
facet normal -0.097887 0.618034 0
outer loop
vertex -4.37114e-08 1 0
vertex -0.309017 0.951056 2
vertex -4.37114e-08 1 2
endloop
endfacet
facet normal -1.90211 -2.61803 0
outer loop
vertex -0.309017 0.951056 0
vertex 1 0 0
vertex 1 0 2
endloop
endfacet
facet normal -1.90211 -2.61803 0
outer loop
vertex -0.309017 0.951056 0
vertex 1 0 2
vertex -0.309017 0.951056 2
endloop
endfacet
facet normal 1.90211 2.61803 0
outer loop
vertex 1 0 0
vertex -0.309017 0.951056 0
vertex -0.309017 0.951056 2
endloop
endfacet
facet normal 1.90211 2.61803 -0
outer loop
vertex 1 0 0
vertex -0.309017 0.951056 2
vertex 1 0 2
endloop
endfacet
facet normal -0.284079 0.557536 0
outer loop
vertex -0.309017 0.951056 0
vertex -0.587785 0.809017 0
vertex -0.587785 0.809017 2
endloop
endfacet
facet normal -0.284079 0.557536 0
outer loop
vertex -0.309017 0.951056 0
vertex -0.587785 0.809017 2
vertex -0.309017 0.951056 2
endloop
endfacet
facet normal -1.61803 -3.17557 0
outer loop
vertex -0.587785 0.809017 0
vertex 1 0 0
vertex 1 0 2
endloop
endfacet
facet normal -1.61803 -3.17557 0
outer loop
vertex -0.587785 0.809017 0
vertex 1 0 2
vertex -0.587785 0.809017 2
endloop
endfacet
facet normal 1.61803 3.17557 0
outer loop
vertex 1 0 0
vertex -0.587785 0.809017 0
vertex -0.587785 0.809017 2
endloop
endfacet
facet normal 1.61803 3.17557 -0
outer loop
vertex 1 0 0
vertex -0.587785 0.809017 2
vertex 1 0 2
endloop
endfacet
facet normal -0.442464 0.442464 0
outer loop
vertex -0.587785 0.809017 0
vertex -0.809017 0.587785 0
vertex -0.809017 0.587785 2
endloop
endfacet
facet normal -0.442464 0.442464 0
outer loop
vertex -0.587785 0.809017 0
vertex -0.809017 0.587785 2
vertex -0.587785 0.809017 2
endloop
endfacet
facet normal -1.17557 -3.61803 0
outer loop
vertex -0.809017 0.587785 0
vertex 1 0 0
vertex 1 0 2
endloop
endfacet
facet normal -1.17557 -3.61803 0
outer loop
vertex -0.809017 0.587785 0
vertex 1 0 2
vertex -0.809017 0.587785 2
endloop
endfacet
facet normal 1.17557 3.61803 0
outer loop
vertex 1 0 0
vertex -0.809017 0.587785 0
vertex -0.809017 0.587785 2
endloop
endfacet
facet normal 1.17557 3.61803 -0
outer loop
vertex 1 0 0
vertex -0.809017 0.587785 2
vertex 1 0 2
endloop
endfacet
facet normal -0.557536 0.284079 0
outer loop
vertex -0.809017 0.587785 0
vertex -0.951056 0.309017 0
vertex -0.951056 0.309017 2
endloop
endfacet
facet normal -0.557536 0.284079 0
outer loop
vertex -0.809017 0.587785 0
vertex -0.951056 0.309017 2
vertex -0.809017 0.587785 2
endloop
endfacet
facet normal -0.618034 -3.90211 0
outer loop
vertex -0.951056 0.309017 0
vertex 1 0 0
vertex 1 0 2
endloop
endfacet
facet normal -0.618034 -3.90211 0
outer loop
vertex -0.951056 0.309017 0
vertex 1 0 2
vertex -0.951056 0.309017 2
endloop
endfacet
facet normal 0.618034 3.90211 0
outer loop
vertex 1 0 0
vertex -0.951056 0.309017 0
vertex -0.951056 0.309017 2
endloop
endfacet
facet normal 0.618034 3.90211 -0
outer loop
vertex 1 0 0
vertex -0.951056 0.309017 2
vertex 1 0 2
endloop
endfacet
facet normal -0.618034 0.097887 0
outer loop
vertex -0.951056 0.309017 0
vertex -1 -8.74228e-08 0
vertex -1 -8.74228e-08 2
endloop
endfacet
facet normal -0.618034 0.097887 0
outer loop
vertex -0.951056 0.309017 0
vertex -1 -8.74228e-08 2
vertex -0.951056 0.309017 2
endloop
endfacet
facet normal 1.74846e-07 -4 0
outer loop
vertex -1 -8.74228e-08 0
vertex 1 0 0
vertex 1 0 2
endloop
endfacet
facet normal 1.74846e-07 -4 0
outer loop
vertex -1 -8.74228e-08 0
vertex 1 0 2
vertex -1 -8.74228e-08 2
endloop
endfacet
facet normal -1.74846e-07 4 0
outer loop
vertex 1 0 0
vertex -1 -8.74228e-08 0
vertex -1 -8.74228e-08 2
endloop
endfacet
facet normal -1.74846e-07 4 0
outer loop
vertex 1 0 0
vertex -1 -8.74228e-08 2
vertex 1 0 2
endloop
endfacet
facet normal -0.618034 -0.0978869 0
outer loop
vertex -1 -8.74228e-08 0
vertex -0.951057 -0.309017 0
vertex -0.951057 -0.309017 2
endloop
endfacet
facet normal -0.618034 -0.0978869 0
outer loop
vertex -1 -8.74228e-08 0
vertex -0.951057 -0.309017 2
vertex -1 -8.74228e-08 2
endloop
endfacet
facet normal 0.618034 -3.90211 0
outer loop
vertex -0.951057 -0.309017 0
vertex 1 0 0
vertex 1 0 2
endloop
endfacet
facet normal 0.618034 -3.90211 0
outer loop
vertex -0.951057 -0.309017 0
vertex 1 0 2
vertex -0.951057 -0.309017 2
endloop
endfacet
facet normal -0.618034 3.90211 0
outer loop
vertex 1 0 0
vertex -0.951057 -0.309017 0
vertex -0.951057 -0.309017 2
endloop
endfacet
facet normal -0.618034 3.90211 0
outer loop
vertex 1 0 0
vertex -0.951057 -0.309017 2
vertex 1 0 2
endloop
endfacet
facet normal -0.557537 -0.284079 0
outer loop
vertex -0.951057 -0.309017 0
vertex -0.809017 -0.587785 0
vertex -0.809017 -0.587785 2
endloop
endfacet
facet normal -0.557537 -0.284079 0
outer loop
vertex -0.951057 -0.309017 0
vertex -0.809017 -0.587785 2
vertex -0.951057 -0.309017 2
endloop
endfacet
facet normal 1.17557 -3.61803 0
outer loop
vertex -0.809017 -0.587785 0
vertex 1 0 0
vertex 1 0 2
endloop
endfacet
facet normal 1.17557 -3.61803 0
outer loop
vertex -0.809017 -0.587785 0
vertex 1 0 2
vertex -0.809017 -0.587785 2
endloop
endfacet
facet normal -1.17557 3.61803 0
outer loop
vertex 1 0 0
vertex -0.809017 -0.587785 0
vertex -0.809017 -0.587785 2
endloop
endfacet
facet normal -1.17557 3.61803 0
outer loop
vertex 1 0 0
vertex -0.809017 -0.587785 2
vertex 1 0 2
endloop
endfacet
facet normal -0.442464 -0.442464 0
outer loop
vertex -0.809017 -0.587785 0
vertex -0.587785 -0.809017 0
vertex -0.587785 -0.809017 2
endloop
endfacet
facet normal -0.442464 -0.442464 0
outer loop
vertex -0.809017 -0.587785 0
vertex -0.587785 -0.809017 2
vertex -0.809017 -0.587785 2
endloop
endfacet
facet normal 1.61803 -3.17557 0
outer loop
vertex -0.587785 -0.809017 0
vertex 1 0 0
vertex 1 0 2
endloop
endfacet
facet normal 1.61803 -3.17557 0
outer loop
vertex -0.587785 -0.809017 0
vertex 1 0 2
vertex -0.587785 -0.809017 2
endloop
endfacet
facet normal -1.61803 3.17557 0
outer loop
vertex 1 0 0
vertex -0.587785 -0.809017 0
vertex -0.587785 -0.809017 2
endloop
endfacet
facet normal -1.61803 3.17557 0
outer loop
vertex 1 0 0
vertex -0.587785 -0.809017 2
vertex 1 0 2
endloop
endfacet
facet normal -0.284079 -0.557536 0
outer loop
vertex -0.587785 -0.809017 0
vertex -0.309017 -0.951056 0
vertex -0.309017 -0.951056 2
endloop
endfacet
facet normal -0.284079 -0.557536 0
outer loop
vertex -0.587785 -0.809017 0
vertex -0.309017 -0.951056 2
vertex -0.587785 -0.809017 2
endloop
endfacet
facet normal 1.90211 -2.61803 0
outer loop
vertex -0.309017 -0.951056 0
vertex 1 0 0
vertex 1 0 2
endloop
endfacet
facet normal 1.90211 -2.61803 0
outer loop
vertex -0.309017 -0.951056 0
vertex 1 0 2
vertex -0.309017 -0.951056 2
endloop
endfacet
facet normal -1.90211 2.61803 0
outer loop
vertex 1 0 0
vertex -0.309017 -0.951056 0
vertex -0.309017 -0.951056 2
endloop
endfacet
facet normal -1.90211 2.61803 0
outer loop
vertex 1 0 0
vertex -0.309017 -0.951056 2
vertex 1 0 2
endloop
endfacet
facet normal -0.097887 -0.618034 0
outer loop
vertex -0.309017 -0.951056 0
vertex 1.19249e-08 -1 0
vertex 1.19249e-08 -1 2
endloop
endfacet
facet normal -0.097887 -0.618034 0
outer loop
vertex -0.309017 -0.951056 0
vertex 1.19249e-08 -1 2
vertex -0.309017 -0.951056 2
endloop
endfacet
facet normal 2 -2 0
outer loop
vertex 1.19249e-08 -1 0
vertex 1 0 0
vertex 1 0 2
endloop
endfacet
facet normal 2 -2 0
outer loop
vertex 1.19249e-08 -1 0
vertex 1 0 2
vertex 1.19249e-08 -1 2
endloop
endfacet
facet normal -2 2 0
outer loop
vertex 1 0 0
vertex 1.19249e-08 -1 0
vertex 1.19249e-08 -1 2
endloop
endfacet
facet normal -2 2 0
outer loop
vertex 1 0 0
vertex 1.19249e-08 -1 2
vertex 1 0 2
endloop
endfacet
facet normal 0.097887 -0.618034 0
outer loop
vertex 1.19249e-08 -1 0
vertex 0.309017 -0.951056 0
vertex 0.309017 -0.951056 2
endloop
endfacet
facet normal 0.097887 -0.618034 0
outer loop
vertex 1.19249e-08 -1 0
vertex 0.309017 -0.951056 2
vertex 1.19249e-08 -1 2
endloop
endfacet
facet normal 1.90211 -1.38197 0
outer loop
vertex 0.309017 -0.951056 0
vertex 1 0 0
vertex 1 0 2
endloop
endfacet
facet normal 1.90211 -1.38197 0
outer loop
vertex 0.309017 -0.951056 0
vertex 1 0 2
vertex 0.309017 -0.951056 2
endloop
endfacet
facet normal -1.90211 1.38197 0
outer loop
vertex 1 0 0
vertex 0.309017 -0.951056 0
vertex 0.309017 -0.951056 2
endloop
endfacet
facet normal -1.90211 1.38197 0
outer loop
vertex 1 0 0
vertex 0.309017 -0.951056 2
vertex 1 0 2
endloop
endfacet
facet normal 0.284079 -0.557536 0
outer loop
vertex 0.309017 -0.951056 0
vertex 0.587785 -0.809017 0
vertex 0.587785 -0.809017 2
endloop
endfacet
facet normal 0.284079 -0.557536 0
outer loop
vertex 0.309017 -0.951056 0
vertex 0.587785 -0.809017 2
vertex 0.309017 -0.951056 2
endloop
endfacet
facet normal 1.61803 -0.82443 0
outer loop
vertex 0.587785 -0.809017 0
vertex 1 0 0
vertex 1 0 2
endloop
endfacet
facet normal 1.61803 -0.82443 0
outer loop
vertex 0.587785 -0.809017 0
vertex 1 0 2
vertex 0.587785 -0.809017 2
endloop
endfacet
facet normal -1.61803 0.82443 0
outer loop
vertex 1 0 0
vertex 0.587785 -0.809017 0
vertex 0.587785 -0.809017 2
endloop
endfacet
facet normal -1.61803 0.82443 0
outer loop
vertex 1 0 0
vertex 0.587785 -0.809017 2
vertex 1 0 2
endloop
endfacet
facet normal 0.442464 -0.442464 0
outer loop
vertex 0.587785 -0.809017 0
vertex 0.809017 -0.587785 0
vertex 0.809017 -0.587785 2
endloop
endfacet
facet normal 0.442464 -0.442464 0
outer loop
vertex 0.587785 -0.809017 0
vertex 0.809017 -0.587785 2
vertex 0.587785 -0.809017 2
endloop
endfacet
facet normal 1.17557 -0.381966 0
outer loop
vertex 0.809017 -0.587785 0
vertex 1 0 0
vertex 1 0 2
endloop
endfacet
facet normal 1.17557 -0.381966 0
outer loop
vertex 0.809017 -0.587785 0
vertex 1 0 2
vertex 0.809017 -0.587785 2
endloop
endfacet
facet normal -1.17557 0.381966 0
outer loop
vertex 1 0 0
vertex 0.809017 -0.587785 0
vertex 0.809017 -0.587785 2
endloop
endfacet
facet normal -1.17557 0.381966 0
outer loop
vertex 1 0 0
vertex 0.809017 -0.587785 2
vertex 1 0 2
endloop
endfacet
facet normal 0.557537 -0.284079 0
outer loop
vertex 0.809017 -0.587785 0
vertex 0.951057 -0.309017 0
vertex 0.951057 -0.309017 2
endloop
endfacet
facet normal 0.557537 -0.284079 0
outer loop
vertex 0.809017 -0.587785 0
vertex 0.951057 -0.309017 2
vertex 0.809017 -0.587785 2
endloop
endfacet
facet normal 0.618034 -0.0978869 0
outer loop
vertex 0.951057 -0.309017 0
vertex 1 0 0
vertex 1 0 2
endloop
endfacet
facet normal 0.618034 -0.0978869 0
outer loop
vertex 0.951057 -0.309017 0
vertex 1 0 2
vertex 0.951057 -0.309017 2
endloop
endfacet
endsolid fast_trimesh STL file
