solid fast_trimesh STL file
facet normal nan nan nan
outer loop
vertex 1 0 0
vertex 1 0 0
vertex 0.951057 0.309017 0
endloop
endfacet
facet normal 0.987688 0.156434 -0
outer loop
vertex 1 0 0
vertex 0.951057 0.309017 0
vertex 1 0 2
endloop
endfacet
facet normal 0.987688 -0.156434 0
outer loop
vertex 1 0 0
vertex 1 0 2
vertex 0.951057 -0.309017 2
endloop
endfacet
facet normal -0 -0 -1
outer loop
vertex 0.951057 0.309017 0
vertex 1 0 0
vertex 0.809017 0.587785 0
endloop
endfacet
facet normal 0.891006 0.453991 -0
outer loop
vertex 0.951057 0.309017 0
vertex 0.809017 0.587785 0
vertex 0.951057 0.309017 2
endloop
endfacet
facet normal 0.987688 0.156434 -0
outer loop
vertex 0.951057 0.309017 0
vertex 0.951057 0.309017 2
vertex 1 0 2
endloop
endfacet
facet normal -0 -0 -1
outer loop
vertex 0.809017 0.587785 0
vertex 1 0 0
vertex 0.587785 0.809017 0
endloop
endfacet
facet normal 0.707107 0.707107 -0
outer loop
vertex 0.809017 0.587785 0
vertex 0.587785 0.809017 0
vertex 0.809017 0.587785 2
endloop
endfacet
facet normal 0.891006 0.453991 -0
outer loop
vertex 0.809017 0.587785 0
vertex 0.809017 0.587785 2
vertex 0.951057 0.309017 2
endloop
endfacet
facet normal -0 -0 -1
outer loop
vertex 0.587785 0.809017 0
vertex 1 0 0
vertex 0.309017 0.951057 0
endloop
endfacet
facet normal 0.453991 0.891006 -0
outer loop
vertex 0.587785 0.809017 0
vertex 0.309017 0.951057 0
vertex 0.587785 0.809017 2
endloop
endfacet
facet normal 0.707107 0.707107 -0
outer loop
vertex 0.587785 0.809017 0
vertex 0.587785 0.809017 2
vertex 0.809017 0.587785 2
endloop
endfacet
facet normal -0 -0 -1
outer loop
vertex 0.309017 0.951057 0
vertex 1 0 0
vertex -4.37114e-08 1 0
endloop
endfacet
facet normal 0.156434 0.987688 -0
outer loop
vertex 0.309017 0.951057 0
vertex -4.37114e-08 1 0
vertex 0.309017 0.951057 2
endloop
endfacet
facet normal 0.453991 0.891006 -0
outer loop
vertex 0.309017 0.951057 0
vertex 0.309017 0.951057 2
vertex 0.587785 0.809017 2
endloop
endfacet
facet normal 0 -0 -1
outer loop
vertex -4.37114e-08 1 0
vertex 1 0 0
vertex -0.309017 0.951056 0
endloop
endfacet
facet normal -0.156435 0.987688 0
outer loop
vertex -4.37114e-08 1 0
vertex -0.309017 0.951056 0
vertex -4.37114e-08 1 2
endloop
endfacet
facet normal 0.156434 0.987688 -0
outer loop
vertex -4.37114e-08 1 0
vertex -4.37114e-08 1 2
vertex 0.309017 0.951057 2
endloop
endfacet
facet normal 0 -0 -1
outer loop
vertex -0.309017 0.951056 0
vertex 1 0 0
vertex -0.587785 0.809017 0
endloop
endfacet
facet normal -0.453991 0.891007 0
outer loop
vertex -0.309017 0.951056 0
vertex -0.587785 0.809017 0
vertex -0.309017 0.951056 2
endloop
endfacet
facet normal -0.156435 0.987688 0
outer loop
vertex -0.309017 0.951056 0
vertex -0.309017 0.951056 2
vertex -4.37114e-08 1 2
endloop
endfacet
facet normal 0 -0 -1
outer loop
vertex -0.587785 0.809017 0
vertex 1 0 0
vertex -0.809017 0.587785 0
endloop
endfacet
facet normal -0.707107 0.707107 0
outer loop
vertex -0.587785 0.809017 0
vertex -0.809017 0.587785 0
vertex -0.587785 0.809017 2
endloop
endfacet
facet normal -0.453991 0.891007 0
outer loop
vertex -0.587785 0.809017 0
vertex -0.587785 0.809017 2
vertex -0.309017 0.951056 2
endloop
endfacet
facet normal 0 -0 -1
outer loop
vertex -0.809017 0.587785 0
vertex 1 0 0
vertex -0.951056 0.309017 0
endloop
endfacet
facet normal -0.891007 0.45399 0
outer loop
vertex -0.809017 0.587785 0
vertex -0.951056 0.309017 0
vertex -0.809017 0.587785 2
endloop
endfacet
facet normal -0.707107 0.707107 0
outer loop
vertex -0.809017 0.587785 0
vertex -0.809017 0.587785 2
vertex -0.587785 0.809017 2
endloop
endfacet
facet normal 0 -0 -1
outer loop
vertex -0.951056 0.309017 0
vertex 1 0 0
vertex -1 -8.74228e-08 0
endloop
endfacet
facet normal -0.987688 0.156435 0
outer loop
vertex -0.951056 0.309017 0
vertex -1 -8.74228e-08 0
vertex -0.951056 0.309017 2
endloop
endfacet
facet normal -0.891007 0.45399 0
outer loop
vertex -0.951056 0.309017 0
vertex -0.951056 0.309017 2
vertex -0.809017 0.587785 2
endloop
endfacet
facet normal 0 0 -1
outer loop
vertex -1 -8.74228e-08 0
vertex 1 0 0
vertex -0.951057 -0.309017 0
endloop
endfacet
facet normal -0.987688 -0.156434 0
outer loop
vertex -1 -8.74228e-08 0
vertex -0.951057 -0.309017 0
vertex -1 -8.74228e-08 2
endloop
endfacet
facet normal -0.987688 0.156435 0
outer loop
vertex -1 -8.74228e-08 0
vertex -1 -8.74228e-08 2
vertex -0.951056 0.309017 2
endloop
endfacet
facet normal 0 0 -1
outer loop
vertex -0.951057 -0.309017 0
vertex 1 0 0
vertex -0.809017 -0.587785 0
endloop
endfacet
facet normal -0.891007 -0.453991 0
outer loop
vertex -0.951057 -0.309017 0
vertex -0.809017 -0.587785 0
vertex -0.951057 -0.309017 2
endloop
endfacet
facet normal -0.987688 -0.156434 0
outer loop
vertex -0.951057 -0.309017 0
vertex -0.951057 -0.309017 2
vertex -1 -8.74228e-08 2
endloop
endfacet
facet normal 0 0 -1
outer loop
vertex -0.809017 -0.587785 0
vertex 1 0 0
vertex -0.587785 -0.809017 0
endloop
endfacet
facet normal -0.707107 -0.707107 0
outer loop
vertex -0.809017 -0.587785 0
vertex -0.587785 -0.809017 0
vertex -0.809017 -0.587785 2
endloop
endfacet
facet normal -0.891007 -0.453991 0
outer loop
vertex -0.809017 -0.587785 0
vertex -0.809017 -0.587785 2
vertex -0.951057 -0.309017 2
endloop
endfacet
facet normal 0 0 -1
outer loop
vertex -0.587785 -0.809017 0
vertex 1 0 0
vertex -0.309017 -0.951056 0
endloop
endfacet
facet normal -0.45399 -0.891007 0
outer loop
vertex -0.587785 -0.809017 0
vertex -0.309017 -0.951056 0
vertex -0.587785 -0.809017 2
endloop
endfacet
facet normal -0.707107 -0.707107 0
outer loop
vertex -0.587785 -0.809017 0
vertex -0.587785 -0.809017 2
vertex -0.809017 -0.587785 2
endloop
endfacet
facet normal 0 0 -1
outer loop
vertex -0.309017 -0.951056 0
vertex 1 0 0
vertex 1.19249e-08 -1 0
endloop
endfacet
facet normal -0.156435 -0.987688 0
outer loop
vertex -0.309017 -0.951056 0
vertex 1.19249e-08 -1 0
vertex -0.309017 -0.951056 2
endloop
endfacet
facet normal -0.45399 -0.891007 0
outer loop
vertex -0.309017 -0.951056 0
vertex -0.309017 -0.951056 2
vertex -0.587785 -0.809017 2
endloop
endfacet
facet normal 0 0 -1
outer loop
vertex 1.19249e-08 -1 0
vertex 1 0 0
vertex 0.309017 -0.951056 0
endloop
endfacet
facet normal 0.156435 -0.987688 0
outer loop
vertex 1.19249e-08 -1 0
vertex 0.309017 -0.951056 0
vertex 1.19249e-08 -1 2
endloop
endfacet
facet normal -0.156435 -0.987688 0
outer loop
vertex 1.19249e-08 -1 0
vertex 1.19249e-08 -1 2
vertex -0.309017 -0.951056 2
endloop
endfacet
facet normal 0 0 -1
outer loop
vertex 0.309017 -0.951056 0
vertex 1 0 0
vertex 0.587785 -0.809017 0
endloop
endfacet
facet normal 0.45399 -0.891006 0
outer loop
vertex 0.309017 -0.951056 0
vertex 0.587785 -0.809017 0
vertex 0.309017 -0.951056 2
endloop
endfacet
facet normal 0.156435 -0.987688 0
outer loop
vertex 0.309017 -0.951056 0
vertex 0.309017 -0.951056 2
vertex 1.19249e-08 -1 2
endloop
endfacet
facet normal 0 0 -1
outer loop
vertex 0.587785 -0.809017 0
vertex 1 0 0
vertex 0.809017 -0.587785 0
endloop
endfacet
facet normal 0.707107 -0.707107 0
outer loop
vertex 0.587785 -0.809017 0
vertex 0.809017 -0.587785 0
vertex 0.587785 -0.809017 2
endloop
endfacet
facet normal 0.45399 -0.891006 0
outer loop
vertex 0.587785 -0.809017 0
vertex 0.587785 -0.809017 2
vertex 0.309017 -0.951056 2
endloop
endfacet
facet normal 0 0 -1
outer loop
vertex 0.809017 -0.587785 0
vertex 1 0 0
vertex 0.951057 -0.309017 0
endloop
endfacet
facet normal 0.891007 -0.453991 0
outer loop
vertex 0.809017 -0.587785 0
vertex 0.951057 -0.309017 0
vertex 0.809017 -0.587785 2
endloop
endfacet
facet normal 0.707107 -0.707107 0
outer loop
vertex 0.809017 -0.587785 0
vertex 0.809017 -0.587785 2
vertex 0.587785 -0.809017 2
endloop
endfacet
facet normal 0.987688 -0.156434 0
outer loop
vertex 0.951057 -0.309017 0
vertex 1 0 0
vertex 0.951057 -0.309017 2
endloop
endfacet
facet normal 0.891007 -0.453991 0
outer loop
vertex 0.951057 -0.309017 0
vertex 0.951057 -0.309017 2
vertex 0.809017 -0.587785 2
endloop
endfacet
facet normal nan nan nan
outer loop
vertex 1 0 2
vertex 0.951057 0.309017 2
vertex 1 0 2
endloop
endfacet
facet normal 0 0 1
outer loop
vertex 0.951057 0.309017 2
vertex 0.809017 0.587785 2
vertex 1 0 2
endloop
endfacet
facet normal 0 0 1
outer loop
vertex 0.809017 0.587785 2
vertex 0.587785 0.809017 2
vertex 1 0 2
endloop
endfacet
facet normal 0 0 1
outer loop
vertex 0.587785 0.809017 2
vertex 0.309017 0.951057 2
vertex 1 0 2
endloop
endfacet
facet normal 0 0 1
outer loop
vertex 0.309017 0.951057 2
vertex -4.37114e-08 1 2
vertex 1 0 2
endloop
endfacet
facet normal 0 0 1
outer loop
vertex -4.37114e-08 1 2
vertex -0.309017 0.951056 2
vertex 1 0 2
endloop
endfacet
facet normal 0 0 1
outer loop
vertex -0.309017 0.951056 2
vertex -0.587785 0.809017 2
vertex 1 0 2
endloop
endfacet
facet normal 0 0 1
outer loop
vertex -0.587785 0.809017 2
vertex -0.809017 0.587785 2
vertex 1 0 2
endloop
endfacet
facet normal 0 0 1
outer loop
vertex -0.809017 0.587785 2
vertex -0.951056 0.309017 2
vertex 1 0 2
endloop
endfacet
facet normal 0 0 1
outer loop
vertex -0.951056 0.309017 2
vertex -1 -8.74228e-08 2
vertex 1 0 2
endloop
endfacet
facet normal -0 0 1
outer loop
vertex -1 -8.74228e-08 2
vertex -0.951057 -0.309017 2
vertex 1 0 2
endloop
endfacet
facet normal -0 0 1
outer loop
vertex -0.951057 -0.309017 2
vertex -0.809017 -0.587785 2
vertex 1 0 2
endloop
endfacet
facet normal -0 0 1
outer loop
vertex -0.809017 -0.587785 2
vertex -0.587785 -0.809017 2
vertex 1 0 2
endloop
endfacet
facet normal -0 0 1
outer loop
vertex -0.587785 -0.809017 2
vertex -0.309017 -0.951056 2
vertex 1 0 2
endloop
endfacet
facet normal -0 0 1
outer loop
vertex -0.309017 -0.951056 2
vertex 1.19249e-08 -1 2
vertex 1 0 2
endloop
endfacet
facet normal 0 0 1
outer loop
vertex 1.19249e-08 -1 2
vertex 0.309017 -0.951056 2
vertex 1 0 2
endloop
endfacet
facet normal 0 0 1
outer loop
vertex 0.309017 -0.951056 2
vertex 0.587785 -0.809017 2
vertex 1 0 2
endloop
endfacet
facet normal 0 0 1
outer loop
vertex 0.587785 -0.809017 2
vertex 0.809017 -0.587785 2
vertex 1 0 2
endloop
endfacet
facet normal 0 0 1
outer loop
vertex 0.809017 -0.587785 2
vertex 0.951057 -0.309017 2
vertex 1 0 2
endloop
endfacet
facet normal nan nan nan
outer loop
vertex 1 3 0
vertex 1 3 0
vertex 0.951057 3.30902 0
endloop
endfacet
facet normal 0.987688 0.156434 -0
outer loop
vertex 1 3 0
vertex 0.951057 3.30902 0
vertex 1 3 1
endloop
endfacet
facet normal 0.987688 -0.156434 0
outer loop
vertex 1 3 0
vertex 1 3 1
vertex 0.951057 2.69098 0.904509
endloop
endfacet
facet normal -0 -0 -1
outer loop
vertex 0.951057 3.30902 0
vertex 1 3 0
vertex 0.809017 3.58779 0
endloop
endfacet
facet normal 0.891007 0.453991 -0
outer loop
vertex 0.951057 3.30902 0
vertex 0.809017 3.58779 0
vertex 0.951057 3.30902 0.904509
endloop
endfacet
facet normal 0.987688 0.156434 -0
outer loop
vertex 0.951057 3.30902 0
vertex 0.951057 3.30902 0.904509
vertex 1 3 1
endloop
endfacet
facet normal -0 -0 -1
outer loop
vertex 0.809017 3.58779 0
vertex 1 3 0
vertex 0.587785 3.80902 0
endloop
endfacet
facet normal 0.707107 0.707107 -0
outer loop
vertex 0.809017 3.58779 0
vertex 0.587785 3.80902 0
vertex 0.809017 3.58779 0.654509
endloop
endfacet
facet normal 0.891007 0.45399 -0
outer loop
vertex 0.809017 3.58779 0
vertex 0.809017 3.58779 0.654509
vertex 0.951057 3.30902 0.904509
endloop
endfacet
facet normal -0 -0 -1
outer loop
vertex 0.587785 3.80902 0
vertex 1 3 0
vertex 0.309017 3.95106 0
endloop
endfacet
facet normal 0.453991 0.891006 -0
outer loop
vertex 0.587785 3.80902 0
vertex 0.309017 3.95106 0
vertex 0.587785 3.80902 0.345491
endloop
endfacet
facet normal 0.707107 0.707107 -0
outer loop
vertex 0.587785 3.80902 0
vertex 0.587785 3.80902 0.345491
vertex 0.809017 3.58779 0.654509
endloop
endfacet
facet normal -0 -0 -1
outer loop
vertex 0.309017 3.95106 0
vertex 1 3 0
vertex -4.37114e-08 4 0
endloop
endfacet
facet normal 0.156435 0.987688 -0
outer loop
vertex 0.309017 3.95106 0
vertex -4.37114e-08 4 0
vertex 0.309017 3.95106 0.0954915
endloop
endfacet
facet normal 0.45399 0.891007 -0
outer loop
vertex 0.309017 3.95106 0
vertex 0.309017 3.95106 0.0954915
vertex 0.587785 3.80902 0.345491
endloop
endfacet
facet normal 0 -0 -1
outer loop
vertex -4.37114e-08 4 0
vertex 1 3 0
vertex -0.309017 3.95106 0
endloop
endfacet
facet normal -0.156435 0.987688 0
outer loop
vertex -4.37114e-08 4 0
vertex -0.309017 3.95106 0
vertex -4.37114e-08 4 1.91069e-15
endloop
endfacet
facet normal 0.156435 0.987688 -0
outer loop
vertex -4.37114e-08 4 0
vertex -4.37114e-08 4 1.91069e-15
vertex 0.309017 3.95106 0.0954915
endloop
endfacet
facet normal 0 -0 -1
outer loop
vertex -0.309017 3.95106 0
vertex 1 3 0
vertex -0.587785 3.80902 0
endloop
endfacet
facet normal -0.453991 0.891006 0
outer loop
vertex -0.309017 3.95106 0
vertex -0.587785 3.80902 0
vertex -0.309017 3.95106 0.0954915
endloop
endfacet
facet normal -0.156435 0.987688 0
outer loop
vertex -0.309017 3.95106 0
vertex -0.309017 3.95106 0.0954915
vertex -4.37114e-08 4 1.91069e-15
endloop
endfacet
facet normal 0 -0 -1
outer loop
vertex -0.587785 3.80902 0
vertex 1 3 0
vertex -0.809017 3.58779 0
endloop
endfacet
facet normal -0.707107 0.707107 0
outer loop
vertex -0.587785 3.80902 0
vertex -0.809017 3.58779 0
vertex -0.587785 3.80902 0.345491
endloop
endfacet
facet normal -0.453991 0.891006 0
outer loop
vertex -0.587785 3.80902 0
vertex -0.587785 3.80902 0.345491
vertex -0.309017 3.95106 0.0954915
endloop
endfacet
facet normal 0 -0 -1
outer loop
vertex -0.809017 3.58779 0
vertex 1 3 0
vertex -0.951056 3.30902 0
endloop
endfacet
facet normal -0.891007 0.45399 0
outer loop
vertex -0.809017 3.58779 0
vertex -0.951056 3.30902 0
vertex -0.809017 3.58779 0.654509
endloop
endfacet
facet normal -0.707106 0.707107 0
outer loop
vertex -0.809017 3.58779 0
vertex -0.809017 3.58779 0.654509
vertex -0.587785 3.80902 0.345491
endloop
endfacet
facet normal 0 -0 -1
outer loop
vertex -0.951056 3.30902 0
vertex 1 3 0
vertex -1 3 0
endloop
endfacet
facet normal -0.987688 0.156435 0
outer loop
vertex -0.951056 3.30902 0
vertex -1 3 0
vertex -0.951056 3.30902 0.904508
endloop
endfacet
facet normal -0.891007 0.45399 0
outer loop
vertex -0.951056 3.30902 0
vertex -0.951056 3.30902 0.904508
vertex -0.809017 3.58779 0.654509
endloop
endfacet
facet normal 0 0 -1
outer loop
vertex -1 3 0
vertex 1 3 0
vertex -0.951057 2.69098 0
endloop
endfacet
facet normal -0.987688 -0.156434 0
outer loop
vertex -1 3 0
vertex -0.951057 2.69098 0
vertex -1 3 1
endloop
endfacet
facet normal -0.987688 0.156435 0
outer loop
vertex -1 3 0
vertex -1 3 1
vertex -0.951056 3.30902 0.904508
endloop
endfacet
facet normal 0 0 -1
outer loop
vertex -0.951057 2.69098 0
vertex 1 3 0
vertex -0.809017 2.41221 0
endloop
endfacet
facet normal -0.891007 -0.453991 0
outer loop
vertex -0.951057 2.69098 0
vertex -0.809017 2.41221 0
vertex -0.951057 2.69098 0.904509
endloop
endfacet
facet normal -0.987688 -0.156434 0
outer loop
vertex -0.951057 2.69098 0
vertex -0.951057 2.69098 0.904509
vertex -1 3 1
endloop
endfacet
facet normal 0 0 -1
outer loop
vertex -0.809017 2.41221 0
vertex 1 3 0
vertex -0.587785 2.19098 0
endloop
endfacet
facet normal -0.707107 -0.707107 0
outer loop
vertex -0.809017 2.41221 0
vertex -0.587785 2.19098 0
vertex -0.809017 2.41221 0.654508
endloop
endfacet
facet normal -0.891006 -0.453991 0
outer loop
vertex -0.809017 2.41221 0
vertex -0.809017 2.41221 0.654508
vertex -0.951057 2.69098 0.904509
endloop
endfacet
facet normal 0 0 -1
outer loop
vertex -0.587785 2.19098 0
vertex 1 3 0
vertex -0.309017 2.04894 0
endloop
endfacet
facet normal -0.45399 -0.891007 0
outer loop
vertex -0.587785 2.19098 0
vertex -0.309017 2.04894 0
vertex -0.587785 2.19098 0.345491
endloop
endfacet
facet normal -0.707107 -0.707107 0
outer loop
vertex -0.587785 2.19098 0
vertex -0.587785 2.19098 0.345491
vertex -0.809017 2.41221 0.654508
endloop
endfacet
facet normal 0 0 -1
outer loop
vertex -0.309017 2.04894 0
vertex 1 3 0
vertex 1.19249e-08 2 0
endloop
endfacet
facet normal -0.156435 -0.987688 0
outer loop
vertex -0.309017 2.04894 0
vertex 1.19249e-08 2 0
vertex -0.309017 2.04894 0.0954916
endloop
endfacet
facet normal -0.45399 -0.891007 0
outer loop
vertex -0.309017 2.04894 0
vertex -0.309017 2.04894 0.0954916
vertex -0.587785 2.19098 0.345491
endloop
endfacet
facet normal 0 0 -1
outer loop
vertex 1.19249e-08 2 0
vertex 1 3 0
vertex 0.309017 2.04894 0
endloop
endfacet
facet normal 0.156435 -0.987688 0
outer loop
vertex 1.19249e-08 2 0
vertex 0.309017 2.04894 0
vertex 1.19249e-08 2 1.42203e-16
endloop
endfacet
facet normal -0.156435 -0.987688 0
outer loop
vertex 1.19249e-08 2 0
vertex 1.19249e-08 2 1.42203e-16
vertex -0.309017 2.04894 0.0954916
endloop
endfacet
facet normal 0 0 -1
outer loop
vertex 0.309017 2.04894 0
vertex 1 3 0
vertex 0.587785 2.19098 0
endloop
endfacet
facet normal 0.45399 -0.891007 0
outer loop
vertex 0.309017 2.04894 0
vertex 0.587785 2.19098 0
vertex 0.309017 2.04894 0.0954916
endloop
endfacet
facet normal 0.156435 -0.987688 0
outer loop
vertex 0.309017 2.04894 0
vertex 0.309017 2.04894 0.0954916
vertex 1.19249e-08 2 1.42203e-16
endloop
endfacet
facet normal 0 0 -1
outer loop
vertex 0.587785 2.19098 0
vertex 1 3 0
vertex 0.809017 2.41221 0
endloop
endfacet
facet normal 0.707107 -0.707107 0
outer loop
vertex 0.587785 2.19098 0
vertex 0.809017 2.41221 0
vertex 0.587785 2.19098 0.345491
endloop
endfacet
facet normal 0.45399 -0.891007 0
outer loop
vertex 0.587785 2.19098 0
vertex 0.587785 2.19098 0.345491
vertex 0.309017 2.04894 0.0954916
endloop
endfacet
facet normal 0 0 -1
outer loop
vertex 0.809017 2.41221 0
vertex 1 3 0
vertex 0.951057 2.69098 0
endloop
endfacet
facet normal 0.891006 -0.453991 0
outer loop
vertex 0.809017 2.41221 0
vertex 0.951057 2.69098 0
vertex 0.809017 2.41221 0.654508
endloop
endfacet
facet normal 0.707107 -0.707107 0
outer loop
vertex 0.809017 2.41221 0
vertex 0.809017 2.41221 0.654508
vertex 0.587785 2.19098 0.345491
endloop
endfacet
facet normal 0.987688 -0.156434 0
outer loop
vertex 0.951057 2.69098 0
vertex 1 3 0
vertex 0.951057 2.69098 0.904509
endloop
endfacet
facet normal 0.891007 -0.453991 0
outer loop
vertex 0.951057 2.69098 0
vertex 0.951057 2.69098 0.904509
vertex 0.809017 2.41221 0.654508
endloop
endfacet
facet normal nan nan nan
outer loop
vertex 1 3 1
vertex 0.951057 3.30902 0.904509
vertex 1 3 1
endloop
endfacet
facet normal -0.85826 0.0225047 0.512722
outer loop
vertex 0.951057 3.30902 0.904509
vertex 0.809017 3.58779 0.654509
vertex 1 3 1
endloop
endfacet
facet normal -0.761673 0.126099 0.635574
outer loop
vertex 0.809017 3.58779 0.654509
vertex 0.587785 3.80902 0.345491
vertex 1 3 1
endloop
endfacet
facet normal -0.508839 0.369694 0.777438
outer loop
vertex 0.587785 3.80902 0.345491
vertex 0.309017 3.95106 0.0954915
vertex 1 3 1
endloop
endfacet
facet normal -0.137026 0.628565 0.765591
outer loop
vertex 0.309017 3.95106 0.0954915
vertex -4.37114e-08 4 1.91069e-15
vertex 1 3 1
endloop
endfacet
facet normal 0.0858577 0.746115 0.660258
outer loop
vertex -4.37114e-08 4 1.91069e-15
vertex -0.309017 3.95106 0.0954915
vertex 1 3 1
endloop
endfacet
facet normal 0.147216 0.780484 0.607596
outer loop
vertex -0.309017 3.95106 0.0954915
vertex -0.587785 3.80902 0.345491
vertex 1 3 1
endloop
endfacet
facet normal 0.126099 0.761673 0.635574
outer loop
vertex -0.587785 3.80902 0.345491
vertex -0.809017 3.58779 0.654509
vertex 1 3 1
endloop
endfacet
facet normal 0.065402 0.647543 0.759217
outer loop
vertex -0.809017 3.58779 0.654509
vertex -0.951056 3.30902 0.904508
vertex 1 3 1
endloop
endfacet
facet normal 0 0.295242 0.955422
outer loop
vertex -0.951056 3.30902 0.904508
vertex -1 3 1
vertex 1 3 1
endloop
endfacet
facet normal 0 -0.295242 0.955423
outer loop
vertex -1 3 1
vertex -0.951057 2.69098 0.904509
vertex 1 3 1
endloop
endfacet
facet normal 0.0654021 -0.647543 0.759217
outer loop
vertex -0.951057 2.69098 0.904509
vertex -0.809017 2.41221 0.654508
vertex 1 3 1
endloop
endfacet
facet normal 0.126098 -0.761672 0.635574
outer loop
vertex -0.809017 2.41221 0.654508
vertex -0.587785 2.19098 0.345491
vertex 1 3 1
endloop
endfacet
facet normal 0.147217 -0.780484 0.607595
outer loop
vertex -0.587785 2.19098 0.345491
vertex -0.309017 2.04894 0.0954916
vertex 1 3 1
endloop
endfacet
facet normal 0.0858578 -0.746115 0.660258
outer loop
vertex -0.309017 2.04894 0.0954916
vertex 1.19249e-08 2 1.42203e-16
vertex 1 3 1
endloop
endfacet
facet normal -0.137026 -0.628565 0.765591
outer loop
vertex 1.19249e-08 2 1.42203e-16
vertex 0.309017 2.04894 0.0954916
vertex 1 3 1
endloop
endfacet
facet normal -0.50884 -0.369693 0.777438
outer loop
vertex 0.309017 2.04894 0.0954916
vertex 0.587785 2.19098 0.345491
vertex 1 3 1
endloop
endfacet
facet normal -0.761672 -0.126099 0.635574
outer loop
vertex 0.587785 2.19098 0.345491
vertex 0.809017 2.41221 0.654508
vertex 1 3 1
endloop
endfacet
facet normal -0.85826 -0.0225048 0.512722
outer loop
vertex 0.809017 2.41221 0.654508
vertex 0.951057 2.69098 0.904509
vertex 1 3 1
endloop
endfacet
endsolid fast_trimesh STL file
