solid fast_trimesh STL file
facet normal 0 0 -1
outer loop
vertex 0 0 0
vertex 1 0 0
vertex 0.951057 -0.309017 0
endloop
endfacet
facet normal 0 0 -1
outer loop
vertex 0 0 0
vertex 0.951057 0.309017 0
vertex 1 0 0
endloop
endfacet
facet normal 0 0 -1
outer loop
vertex 0 0 0
vertex 0.809017 0.587785 0
vertex 0.951057 0.309017 0
endloop
endfacet
facet normal 0 0 -1
outer loop
vertex 0 0 0
vertex 0.587785 0.809017 0
vertex 0.809017 0.587785 0
endloop
endfacet
facet normal 0 0 -1
outer loop
vertex 0 0 0
vertex 0.309017 0.951057 0
vertex 0.587785 0.809017 0
endloop
endfacet
facet normal 0 0 -1
outer loop
vertex 0 0 0
vertex -4.37114e-08 1 0
vertex 0.309017 0.951057 0
endloop
endfacet
facet normal 0 0 -1
outer loop
vertex 0 0 0
vertex -0.309017 0.951056 0
vertex -4.37114e-08 1 0
endloop
endfacet
facet normal 0 0 -1
outer loop
vertex 0 0 0
vertex -0.587785 0.809017 0
vertex -0.309017 0.951056 0
endloop
endfacet
facet normal 0 0 -1
outer loop
vertex 0 0 0
vertex -0.809017 0.587785 0
vertex -0.587785 0.809017 0
endloop
endfacet
facet normal 0 0 -1
outer loop
vertex 0 0 0
vertex -0.951056 0.309017 0
vertex -0.809017 0.587785 0
endloop
endfacet
facet normal -0 0 -1
outer loop
vertex 0 0 0
vertex -1 -8.74228e-08 0
vertex -0.951056 0.309017 0
endloop
endfacet
facet normal 0 0 -1
outer loop
vertex 0 0 0
vertex -0.951057 -0.309017 0
vertex -1 -8.74228e-08 0
endloop
endfacet
facet normal 0 0 -1
outer loop
vertex 0 0 0
vertex -0.809017 -0.587785 0
vertex -0.951057 -0.309017 0
endloop
endfacet
facet normal 0 0 -1
outer loop
vertex 0 0 0
vertex -0.587785 -0.809017 0
vertex -0.809017 -0.587785 0
endloop
endfacet
facet normal 0 0 -1
outer loop
vertex 0 0 0
vertex -0.309017 -0.951056 0
vertex -0.587785 -0.809017 0
endloop
endfacet
facet normal 0 -0 -1
outer loop
vertex 0 0 0
vertex 1.19249e-08 -1 0
vertex -0.309017 -0.951056 0
endloop
endfacet
facet normal 0 0 -1
outer loop
vertex 0 0 0
vertex 0.309017 -0.951056 0
vertex 1.19249e-08 -1 0
endloop
endfacet
facet normal 0 0 -1
outer loop
vertex 0 0 0
vertex 0.587785 -0.809017 0
vertex 0.309017 -0.951056 0
endloop
endfacet
facet normal 0 0 -1
outer loop
vertex 0 0 0
vertex 0.809017 -0.587785 0
vertex 0.587785 -0.809017 0
endloop
endfacet
facet normal 0 0 -1
outer loop
vertex 0 0 0
vertex 0.951057 -0.309017 0
vertex 0.809017 -0.587785 0
endloop
endfacet
facet normal nan nan nan
outer loop
vertex 1 0 0
vertex 1 0 2
vertex 1 0 0
endloop
endfacet
facet normal nan nan nan
outer loop
vertex 1 0 0
vertex 1 0 2
vertex 1 0 2
endloop
endfacet
facet normal -0.987688 -0.156434 0
outer loop
vertex 1 0 0
vertex 1 0 2
vertex 0.951057 0.309017 2
endloop
endfacet
facet normal 0.987688 -0.156434 0
outer loop
vertex 1 0 0
vertex 1 0 2
vertex 0.951057 -0.309017 2
endloop
endfacet
facet normal -0.987688 -0.156434 0
outer loop
vertex 1 0 0
vertex 0.951057 0.309017 2
vertex 0.951057 0.309017 0
endloop
endfacet
facet normal 0.987688 -0.156434 0
outer loop
vertex 1 0 0
vertex 0.951057 -0.309017 2
vertex 0.951057 -0.309017 0
endloop
endfacet
facet normal 0.987688 0.156434 0
outer loop
vertex 0.951057 0.309017 0
vertex 1 0 2
vertex 1 0 0
endloop
endfacet
facet normal 0.987688 0.156434 -0
outer loop
vertex 0.951057 0.309017 0
vertex 0.951057 0.309017 2
vertex 1 0 2
endloop
endfacet
facet normal -0.891006 -0.453991 0
outer loop
vertex 0.951057 0.309017 0
vertex 0.951057 0.309017 2
vertex 0.809017 0.587785 2
endloop
endfacet
facet normal -0.891006 -0.453991 0
outer loop
vertex 0.951057 0.309017 0
vertex 0.809017 0.587785 2
vertex 0.809017 0.587785 0
endloop
endfacet
facet normal 0.891006 0.453991 0
outer loop
vertex 0.809017 0.587785 0
vertex 0.951057 0.309017 2
vertex 0.951057 0.309017 0
endloop
endfacet
facet normal 0.891006 0.453991 -0
outer loop
vertex 0.809017 0.587785 0
vertex 0.809017 0.587785 2
vertex 0.951057 0.309017 2
endloop
endfacet
facet normal -0.707107 -0.707107 0
outer loop
vertex 0.809017 0.587785 0
vertex 0.809017 0.587785 2
vertex 0.587785 0.809017 2
endloop
endfacet
facet normal -0.707107 -0.707107 0
outer loop
vertex 0.809017 0.587785 0
vertex 0.587785 0.809017 2
vertex 0.587785 0.809017 0
endloop
endfacet
facet normal 0.707107 0.707107 0
outer loop
vertex 0.587785 0.809017 0
vertex 0.809017 0.587785 2
vertex 0.809017 0.587785 0
endloop
endfacet
facet normal 0.707107 0.707107 -0
outer loop
vertex 0.587785 0.809017 0
vertex 0.587785 0.809017 2
vertex 0.809017 0.587785 2
endloop
endfacet
facet normal -0.453991 -0.891006 0
outer loop
vertex 0.587785 0.809017 0
vertex 0.587785 0.809017 2
vertex 0.309017 0.951057 2
endloop
endfacet
facet normal -0.453991 -0.891006 0
outer loop
vertex 0.587785 0.809017 0
vertex 0.309017 0.951057 2
vertex 0.309017 0.951057 0
endloop
endfacet
facet normal 0.453991 0.891006 0
outer loop
vertex 0.309017 0.951057 0
vertex 0.587785 0.809017 2
vertex 0.587785 0.809017 0
endloop
endfacet
facet normal 0.453991 0.891006 -0
outer loop
vertex 0.309017 0.951057 0
vertex 0.309017 0.951057 2
vertex 0.587785 0.809017 2
endloop
endfacet
facet normal -0.156434 -0.987688 0
outer loop
vertex 0.309017 0.951057 0
vertex 0.309017 0.951057 2
vertex -4.37114e-08 1 2
endloop
endfacet
facet normal -0.156434 -0.987688 0
outer loop
vertex 0.309017 0.951057 0
vertex -4.37114e-08 1 2
vertex -4.37114e-08 1 0
endloop
endfacet
facet normal 0.156434 0.987688 0
outer loop
vertex -4.37114e-08 1 0
vertex 0.309017 0.951057 2
vertex 0.309017 0.951057 0
endloop
endfacet
facet normal 0.156434 0.987688 -0
outer loop
vertex -4.37114e-08 1 0
vertex -4.37114e-08 1 2
vertex 0.309017 0.951057 2
endloop
endfacet
facet normal 0.156435 -0.987688 0
outer loop
vertex -4.37114e-08 1 0
vertex -4.37114e-08 1 2
vertex -0.309017 0.951056 2
endloop
endfacet
facet normal 0.156435 -0.987688 0
outer loop
vertex -4.37114e-08 1 0
vertex -0.309017 0.951056 2
vertex -0.309017 0.951056 0
endloop
endfacet
facet normal -0.156435 0.987688 0
outer loop
vertex -0.309017 0.951056 0
vertex -4.37114e-08 1 2
vertex -4.37114e-08 1 0
endloop
endfacet
facet normal -0.156435 0.987688 0
outer loop
vertex -0.309017 0.951056 0
vertex -0.309017 0.951056 2
vertex -4.37114e-08 1 2
endloop
endfacet
facet normal 0.453991 -0.891007 0
outer loop
vertex -0.309017 0.951056 0
vertex -0.309017 0.951056 2
vertex -0.587785 0.809017 2
endloop
endfacet
facet normal 0.453991 -0.891007 0
outer loop
vertex -0.309017 0.951056 0
vertex -0.587785 0.809017 2
vertex -0.587785 0.809017 0
endloop
endfacet
facet normal -0.453991 0.891007 0
outer loop
vertex -0.587785 0.809017 0
vertex -0.309017 0.951056 2
vertex -0.309017 0.951056 0
endloop
endfacet
facet normal -0.453991 0.891007 0
outer loop
vertex -0.587785 0.809017 0
vertex -0.587785 0.809017 2
vertex -0.309017 0.951056 2
endloop
endfacet
facet normal 0.707107 -0.707107 0
outer loop
vertex -0.587785 0.809017 0
vertex -0.587785 0.809017 2
vertex -0.809017 0.587785 2
endloop
endfacet
facet normal 0.707107 -0.707107 0
outer loop
vertex -0.587785 0.809017 0
vertex -0.809017 0.587785 2
vertex -0.809017 0.587785 0
endloop
endfacet
facet normal -0.707107 0.707107 0
outer loop
vertex -0.809017 0.587785 0
vertex -0.587785 0.809017 2
vertex -0.587785 0.809017 0
endloop
endfacet
facet normal -0.707107 0.707107 0
outer loop
vertex -0.809017 0.587785 0
vertex -0.809017 0.587785 2
vertex -0.587785 0.809017 2
endloop
endfacet
facet normal 0.891007 -0.45399 0
outer loop
vertex -0.809017 0.587785 0
vertex -0.809017 0.587785 2
vertex -0.951056 0.309017 2
endloop
endfacet
facet normal 0.891007 -0.45399 0
outer loop
vertex -0.809017 0.587785 0
vertex -0.951056 0.309017 2
vertex -0.951056 0.309017 0
endloop
endfacet
facet normal -0.891007 0.45399 0
outer loop
vertex -0.951056 0.309017 0
vertex -0.809017 0.587785 2
vertex -0.809017 0.587785 0
endloop
endfacet
facet normal -0.891007 0.45399 0
outer loop
vertex -0.951056 0.309017 0
vertex -0.951056 0.309017 2
vertex -0.809017 0.587785 2
endloop
endfacet
facet normal 0.987688 -0.156435 0
outer loop
vertex -0.951056 0.309017 0
vertex -0.951056 0.309017 2
vertex -1 -8.74228e-08 2
endloop
endfacet
facet normal 0.987688 -0.156435 0
outer loop
vertex -0.951056 0.309017 0
vertex -1 -8.74228e-08 2
vertex -1 -8.74228e-08 0
endloop
endfacet
facet normal -0.987688 0.156435 0
outer loop
vertex -1 -8.74228e-08 0
vertex -0.951056 0.309017 2
vertex -0.951056 0.309017 0
endloop
endfacet
facet normal -0.987688 0.156435 0
outer loop
vertex -1 -8.74228e-08 0
vertex -1 -8.74228e-08 2
vertex -0.951056 0.309017 2
endloop
endfacet
facet normal 0.987688 0.156434 -0
outer loop
vertex -1 -8.74228e-08 0
vertex -1 -8.74228e-08 2
vertex -0.951057 -0.309017 2
endloop
endfacet
facet normal 0.987688 0.156434 0
outer loop
vertex -1 -8.74228e-08 0
vertex -0.951057 -0.309017 2
vertex -0.951057 -0.309017 0
endloop
endfacet
facet normal -0.987688 -0.156434 0
outer loop
vertex -0.951057 -0.309017 0
vertex -1 -8.74228e-08 2
vertex -1 -8.74228e-08 0
endloop
endfacet
facet normal -0.987688 -0.156434 0
outer loop
vertex -0.951057 -0.309017 0
vertex -0.951057 -0.309017 2
vertex -1 -8.74228e-08 2
endloop
endfacet
facet normal 0.891007 0.453991 -0
outer loop
vertex -0.951057 -0.309017 0
vertex -0.951057 -0.309017 2
vertex -0.809017 -0.587785 2
endloop
endfacet
facet normal 0.891007 0.453991 0
outer loop
vertex -0.951057 -0.309017 0
vertex -0.809017 -0.587785 2
vertex -0.809017 -0.587785 0
endloop
endfacet
facet normal -0.891007 -0.453991 0
outer loop
vertex -0.809017 -0.587785 0
vertex -0.951057 -0.309017 2
vertex -0.951057 -0.309017 0
endloop
endfacet
facet normal -0.891007 -0.453991 0
outer loop
vertex -0.809017 -0.587785 0
vertex -0.809017 -0.587785 2
vertex -0.951057 -0.309017 2
endloop
endfacet
facet normal 0.707107 0.707107 -0
outer loop
vertex -0.809017 -0.587785 0
vertex -0.809017 -0.587785 2
vertex -0.587785 -0.809017 2
endloop
endfacet
facet normal 0.707107 0.707107 0
outer loop
vertex -0.809017 -0.587785 0
vertex -0.587785 -0.809017 2
vertex -0.587785 -0.809017 0
endloop
endfacet
facet normal -0.707107 -0.707107 0
outer loop
vertex -0.587785 -0.809017 0
vertex -0.809017 -0.587785 2
vertex -0.809017 -0.587785 0
endloop
endfacet
facet normal -0.707107 -0.707107 0
outer loop
vertex -0.587785 -0.809017 0
vertex -0.587785 -0.809017 2
vertex -0.809017 -0.587785 2
endloop
endfacet
facet normal 0.45399 0.891007 -0
outer loop
vertex -0.587785 -0.809017 0
vertex -0.587785 -0.809017 2
vertex -0.309017 -0.951056 2
endloop
endfacet
facet normal 0.45399 0.891007 0
outer loop
vertex -0.587785 -0.809017 0
vertex -0.309017 -0.951056 2
vertex -0.309017 -0.951056 0
endloop
endfacet
facet normal -0.45399 -0.891007 0
outer loop
vertex -0.309017 -0.951056 0
vertex -0.587785 -0.809017 2
vertex -0.587785 -0.809017 0
endloop
endfacet
facet normal -0.45399 -0.891007 0
outer loop
vertex -0.309017 -0.951056 0
vertex -0.309017 -0.951056 2
vertex -0.587785 -0.809017 2
endloop
endfacet
facet normal 0.156435 0.987688 -0
outer loop
vertex -0.309017 -0.951056 0
vertex -0.309017 -0.951056 2
vertex 1.19249e-08 -1 2
endloop
endfacet
facet normal 0.156435 0.987688 0
outer loop
vertex -0.309017 -0.951056 0
vertex 1.19249e-08 -1 2
vertex 1.19249e-08 -1 0
endloop
endfacet
facet normal -0.156435 -0.987688 0
outer loop
vertex 1.19249e-08 -1 0
vertex -0.309017 -0.951056 2
vertex -0.309017 -0.951056 0
endloop
endfacet
facet normal -0.156435 -0.987688 0
outer loop
vertex 1.19249e-08 -1 0
vertex 1.19249e-08 -1 2
vertex -0.309017 -0.951056 2
endloop
endfacet
facet normal -0.156435 0.987688 0
outer loop
vertex 1.19249e-08 -1 0
vertex 1.19249e-08 -1 2
vertex 0.309017 -0.951056 2
endloop
endfacet
facet normal -0.156435 0.987688 0
outer loop
vertex 1.19249e-08 -1 0
vertex 0.309017 -0.951056 2
vertex 0.309017 -0.951056 0
endloop
endfacet
facet normal 0.156435 -0.987688 0
outer loop
vertex 0.309017 -0.951056 0
vertex 1.19249e-08 -1 2
vertex 1.19249e-08 -1 0
endloop
endfacet
facet normal 0.156435 -0.987688 0
outer loop
vertex 0.309017 -0.951056 0
vertex 0.309017 -0.951056 2
vertex 1.19249e-08 -1 2
endloop
endfacet
facet normal -0.45399 0.891006 0
outer loop
vertex 0.309017 -0.951056 0
vertex 0.309017 -0.951056 2
vertex 0.587785 -0.809017 2
endloop
endfacet
facet normal -0.45399 0.891006 0
outer loop
vertex 0.309017 -0.951056 0
vertex 0.587785 -0.809017 2
vertex 0.587785 -0.809017 0
endloop
endfacet
facet normal 0.45399 -0.891006 0
outer loop
vertex 0.587785 -0.809017 0
vertex 0.309017 -0.951056 2
vertex 0.309017 -0.951056 0
endloop
endfacet
facet normal 0.45399 -0.891006 0
outer loop
vertex 0.587785 -0.809017 0
vertex 0.587785 -0.809017 2
vertex 0.309017 -0.951056 2
endloop
endfacet
facet normal -0.707107 0.707107 0
outer loop
vertex 0.587785 -0.809017 0
vertex 0.587785 -0.809017 2
vertex 0.809017 -0.587785 2
endloop
endfacet
facet normal -0.707107 0.707107 0
outer loop
vertex 0.587785 -0.809017 0
vertex 0.809017 -0.587785 2
vertex 0.809017 -0.587785 0
endloop
endfacet
facet normal 0.707107 -0.707107 0
outer loop
vertex 0.809017 -0.587785 0
vertex 0.587785 -0.809017 2
vertex 0.587785 -0.809017 0
endloop
endfacet
facet normal 0.707107 -0.707107 0
outer loop
vertex 0.809017 -0.587785 0
vertex 0.809017 -0.587785 2
vertex 0.587785 -0.809017 2
endloop
endfacet
facet normal -0.891007 0.453991 0
outer loop
vertex 0.809017 -0.587785 0
vertex 0.809017 -0.587785 2
vertex 0.951057 -0.309017 2
endloop
endfacet
facet normal -0.891007 0.453991 0
outer loop
vertex 0.809017 -0.587785 0
vertex 0.951057 -0.309017 2
vertex 0.951057 -0.309017 0
endloop
endfacet
facet normal -0.987688 0.156434 0
outer loop
vertex 0.951057 -0.309017 0
vertex 1 0 2
vertex 1 0 0
endloop
endfacet
facet normal 0.891007 -0.453991 0
outer loop
vertex 0.951057 -0.309017 0
vertex 0.809017 -0.587785 2
vertex 0.809017 -0.587785 0
endloop
endfacet
facet normal -0.987688 0.156434 0
outer loop
vertex 0.951057 -0.309017 0
vertex 0.951057 -0.309017 2
vertex 1 0 2
endloop
endfacet
facet normal 0.891007 -0.453991 0
outer loop
vertex 0.951057 -0.309017 0
vertex 0.951057 -0.309017 2
vertex 0.809017 -0.587785 2
endloop
endfacet
facet normal 0 0 1
outer loop
vertex 0 0 2
vertex 1 0 2
vertex 0.951057 0.309017 2
endloop
endfacet
facet normal 0 0 1
outer loop
vertex 0 0 2
vertex 0.951057 0.309017 2
vertex 0.809017 0.587785 2
endloop
endfacet
facet normal 0 0 1
outer loop
vertex 0 0 2
vertex 0.809017 0.587785 2
vertex 0.587785 0.809017 2
endloop
endfacet
facet normal 0 0 1
outer loop
vertex 0 0 2
vertex 0.587785 0.809017 2
vertex 0.309017 0.951057 2
endloop
endfacet
facet normal 0 -0 1
outer loop
vertex 0 0 2
vertex 0.309017 0.951057 2
vertex -4.37114e-08 1 2
endloop
endfacet
facet normal 0 0 1
outer loop
vertex 0 0 2
vertex -4.37114e-08 1 2
vertex -0.309017 0.951056 2
endloop
endfacet
facet normal 0 0 1
outer loop
vertex 0 0 2
vertex -0.309017 0.951056 2
vertex -0.587785 0.809017 2
endloop
endfacet
facet normal 0 0 1
outer loop
vertex 0 0 2
vertex -0.587785 0.809017 2
vertex -0.809017 0.587785 2
endloop
endfacet
facet normal 0 0 1
outer loop
vertex 0 0 2
vertex -0.809017 0.587785 2
vertex -0.951056 0.309017 2
endloop
endfacet
facet normal 0 0 1
outer loop
vertex 0 0 2
vertex -0.951056 0.309017 2
vertex -1 -8.74228e-08 2
endloop
endfacet
facet normal 0 0 1
outer loop
vertex 0 0 2
vertex -1 -8.74228e-08 2
vertex -0.951057 -0.309017 2
endloop
endfacet
facet normal 0 0 1
outer loop
vertex 0 0 2
vertex -0.951057 -0.309017 2
vertex -0.809017 -0.587785 2
endloop
endfacet
facet normal 0 0 1
outer loop
vertex 0 0 2
vertex -0.809017 -0.587785 2
vertex -0.587785 -0.809017 2
endloop
endfacet
facet normal 0 0 1
outer loop
vertex 0 0 2
vertex -0.587785 -0.809017 2
vertex -0.309017 -0.951056 2
endloop
endfacet
facet normal 0 0 1
outer loop
vertex 0 0 2
vertex -0.309017 -0.951056 2
vertex 1.19249e-08 -1 2
endloop
endfacet
facet normal 0 0 1
outer loop
vertex 0 0 2
vertex 1.19249e-08 -1 2
vertex 0.309017 -0.951056 2
endloop
endfacet
facet normal 0 0 1
outer loop
vertex 0 0 2
vertex 0.309017 -0.951056 2
vertex 0.587785 -0.809017 2
endloop
endfacet
facet normal 0 0 1
outer loop
vertex 0 0 2
vertex 0.587785 -0.809017 2
vertex 0.809017 -0.587785 2
endloop
endfacet
facet normal 0 0 1
outer loop
vertex 0 0 2
vertex 0.809017 -0.587785 2
vertex 0.951057 -0.309017 2
endloop
endfacet
facet normal -0 0 1
outer loop
vertex 0 0 2
vertex 0.951057 -0.309017 2
vertex 1 0 2
endloop
endfacet
facet normal 0 0 -1
outer loop
vertex 0 3 0
vertex 1 3 0
vertex 0.951057 2.69098 0
endloop
endfacet
facet normal 0 0 -1
outer loop
vertex 0 3 0
vertex 0.951057 3.30902 0
vertex 1 3 0
endloop
endfacet
facet normal 0 0 -1
outer loop
vertex 0 3 0
vertex 0.809017 3.58779 0
vertex 0.951057 3.30902 0
endloop
endfacet
facet normal 0 0 -1
outer loop
vertex 0 3 0
vertex 0.587785 3.80902 0
vertex 0.809017 3.58779 0
endloop
endfacet
facet normal 0 0 -1
outer loop
vertex 0 3 0
vertex 0.309017 3.95106 0
vertex 0.587785 3.80902 0
endloop
endfacet
facet normal 0 0 -1
outer loop
vertex 0 3 0
vertex -4.37114e-08 4 0
vertex 0.309017 3.95106 0
endloop
endfacet
facet normal 0 0 -1
outer loop
vertex 0 3 0
vertex -0.309017 3.95106 0
vertex -4.37114e-08 4 0
endloop
endfacet
facet normal 0 0 -1
outer loop
vertex 0 3 0
vertex -0.587785 3.80902 0
vertex -0.309017 3.95106 0
endloop
endfacet
facet normal 0 0 -1
outer loop
vertex 0 3 0
vertex -0.809017 3.58779 0
vertex -0.587785 3.80902 0
endloop
endfacet
facet normal 0 0 -1
outer loop
vertex 0 3 0
vertex -0.951056 3.30902 0
vertex -0.809017 3.58779 0
endloop
endfacet
facet normal 0 0 -1
outer loop
vertex 0 3 0
vertex -1 3 0
vertex -0.951056 3.30902 0
endloop
endfacet
facet normal -0 0 -1
outer loop
vertex 0 3 0
vertex -0.951057 2.69098 0
vertex -1 3 0
endloop
endfacet
facet normal 0 0 -1
outer loop
vertex 0 3 0
vertex -0.809017 2.41221 0
vertex -0.951057 2.69098 0
endloop
endfacet
facet normal 0 0 -1
outer loop
vertex 0 3 0
vertex -0.587785 2.19098 0
vertex -0.809017 2.41221 0
endloop
endfacet
facet normal 0 0 -1
outer loop
vertex 0 3 0
vertex -0.309017 2.04894 0
vertex -0.587785 2.19098 0
endloop
endfacet
facet normal 0 -0 -1
outer loop
vertex 0 3 0
vertex 1.19249e-08 2 0
vertex -0.309017 2.04894 0
endloop
endfacet
facet normal 0 0 -1
outer loop
vertex 0 3 0
vertex 0.309017 2.04894 0
vertex 1.19249e-08 2 0
endloop
endfacet
facet normal 0 0 -1
outer loop
vertex 0 3 0
vertex 0.587785 2.19098 0
vertex 0.309017 2.04894 0
endloop
endfacet
facet normal 0 0 -1
outer loop
vertex 0 3 0
vertex 0.809017 2.41221 0
vertex 0.587785 2.19098 0
endloop
endfacet
facet normal 0 0 -1
outer loop
vertex 0 3 0
vertex 0.951057 2.69098 0
vertex 0.809017 2.41221 0
endloop
endfacet
facet normal nan nan nan
outer loop
vertex 1 3 0
vertex 1 3 1
vertex 1 3 0
endloop
endfacet
facet normal nan nan nan
outer loop
vertex 1 3 0
vertex 1 3 1
vertex 1 3 1
endloop
endfacet
facet normal -0.987688 -0.156434 0
outer loop
vertex 1 3 0
vertex 1 3 1
vertex 0.951057 3.30902 0.904509
endloop
endfacet
facet normal 0.987688 -0.156434 0
outer loop
vertex 1 3 0
vertex 1 3 1
vertex 0.951057 2.69098 0.904509
endloop
endfacet
facet normal -0.987688 -0.156434 0
outer loop
vertex 1 3 0
vertex 0.951057 3.30902 0.904509
vertex 0.951057 3.30902 0
endloop
endfacet
facet normal 0.987688 -0.156434 0
outer loop
vertex 1 3 0
vertex 0.951057 2.69098 0.904509
vertex 0.951057 2.69098 0
endloop
endfacet
facet normal 0.987688 0.156434 0
outer loop
vertex 0.951057 3.30902 0
vertex 1 3 1
vertex 1 3 0
endloop
endfacet
facet normal 0.987688 0.156434 -0
outer loop
vertex 0.951057 3.30902 0
vertex 0.951057 3.30902 0.904509
vertex 1 3 1
endloop
endfacet
facet normal -0.891007 -0.453991 0
outer loop
vertex 0.951057 3.30902 0
vertex 0.951057 3.30902 0.904509
vertex 0.809017 3.58779 0.654509
endloop
endfacet
facet normal -0.891007 -0.45399 0
outer loop
vertex 0.951057 3.30902 0
vertex 0.809017 3.58779 0.654509
vertex 0.809017 3.58779 0
endloop
endfacet
facet normal 0.891007 0.453991 0
outer loop
vertex 0.809017 3.58779 0
vertex 0.951057 3.30902 0.904509
vertex 0.951057 3.30902 0
endloop
endfacet
facet normal 0.891007 0.45399 -0
outer loop
vertex 0.809017 3.58779 0
vertex 0.809017 3.58779 0.654509
vertex 0.951057 3.30902 0.904509
endloop
endfacet
facet normal -0.707107 -0.707107 0
outer loop
vertex 0.809017 3.58779 0
vertex 0.809017 3.58779 0.654509
vertex 0.587785 3.80902 0.345491
endloop
endfacet
facet normal -0.707107 -0.707107 0
outer loop
vertex 0.809017 3.58779 0
vertex 0.587785 3.80902 0.345491
vertex 0.587785 3.80902 0
endloop
endfacet
facet normal 0.707107 0.707107 0
outer loop
vertex 0.587785 3.80902 0
vertex 0.809017 3.58779 0.654509
vertex 0.809017 3.58779 0
endloop
endfacet
facet normal 0.707107 0.707107 -0
outer loop
vertex 0.587785 3.80902 0
vertex 0.587785 3.80902 0.345491
vertex 0.809017 3.58779 0.654509
endloop
endfacet
facet normal -0.453991 -0.891006 0
outer loop
vertex 0.587785 3.80902 0
vertex 0.587785 3.80902 0.345491
vertex 0.309017 3.95106 0.0954915
endloop
endfacet
facet normal -0.45399 -0.891007 0
outer loop
vertex 0.587785 3.80902 0
vertex 0.309017 3.95106 0.0954915
vertex 0.309017 3.95106 0
endloop
endfacet
facet normal 0.453991 0.891006 0
outer loop
vertex 0.309017 3.95106 0
vertex 0.587785 3.80902 0.345491
vertex 0.587785 3.80902 0
endloop
endfacet
facet normal 0.45399 0.891007 -0
outer loop
vertex 0.309017 3.95106 0
vertex 0.309017 3.95106 0.0954915
vertex 0.587785 3.80902 0.345491
endloop
endfacet
facet normal -0.156435 -0.987688 0
outer loop
vertex 0.309017 3.95106 0
vertex 0.309017 3.95106 0.0954915
vertex -4.37114e-08 4 1.91069e-15
endloop
endfacet
facet normal -0.156435 -0.987688 0
outer loop
vertex 0.309017 3.95106 0
vertex -4.37114e-08 4 1.91069e-15
vertex -4.37114e-08 4 0
endloop
endfacet
facet normal 0.156435 0.987688 0
outer loop
vertex -4.37114e-08 4 0
vertex 0.309017 3.95106 0.0954915
vertex 0.309017 3.95106 0
endloop
endfacet
facet normal 0.156435 0.987688 -0
outer loop
vertex -4.37114e-08 4 0
vertex -4.37114e-08 4 1.91069e-15
vertex 0.309017 3.95106 0.0954915
endloop
endfacet
facet normal 0.156435 -0.987688 0
outer loop
vertex -4.37114e-08 4 0
vertex -4.37114e-08 4 1.91069e-15
vertex -0.309017 3.95106 0.0954915
endloop
endfacet
facet normal 0.156435 -0.987688 0
outer loop
vertex -4.37114e-08 4 0
vertex -0.309017 3.95106 0.0954915
vertex -0.309017 3.95106 0
endloop
endfacet
facet normal -0.156435 0.987688 0
outer loop
vertex -0.309017 3.95106 0
vertex -4.37114e-08 4 1.91069e-15
vertex -4.37114e-08 4 0
endloop
endfacet
facet normal -0.156435 0.987688 0
outer loop
vertex -0.309017 3.95106 0
vertex -0.309017 3.95106 0.0954915
vertex -4.37114e-08 4 1.91069e-15
endloop
endfacet
facet normal 0.453991 -0.891006 0
outer loop
vertex -0.309017 3.95106 0
vertex -0.309017 3.95106 0.0954915
vertex -0.587785 3.80902 0.345491
endloop
endfacet
facet normal 0.453991 -0.891006 0
outer loop
vertex -0.309017 3.95106 0
vertex -0.587785 3.80902 0.345491
vertex -0.587785 3.80902 0
endloop
endfacet
facet normal -0.453991 0.891006 0
outer loop
vertex -0.587785 3.80902 0
vertex -0.309017 3.95106 0.0954915
vertex -0.309017 3.95106 0
endloop
endfacet
facet normal -0.453991 0.891006 0
outer loop
vertex -0.587785 3.80902 0
vertex -0.587785 3.80902 0.345491
vertex -0.309017 3.95106 0.0954915
endloop
endfacet
facet normal 0.707107 -0.707107 0
outer loop
vertex -0.587785 3.80902 0
vertex -0.587785 3.80902 0.345491
vertex -0.809017 3.58779 0.654509
endloop
endfacet
facet normal 0.707106 -0.707107 0
outer loop
vertex -0.587785 3.80902 0
vertex -0.809017 3.58779 0.654509
vertex -0.809017 3.58779 0
endloop
endfacet
facet normal -0.707107 0.707107 0
outer loop
vertex -0.809017 3.58779 0
vertex -0.587785 3.80902 0.345491
vertex -0.587785 3.80902 0
endloop
endfacet
facet normal -0.707106 0.707107 0
outer loop
vertex -0.809017 3.58779 0
vertex -0.809017 3.58779 0.654509
vertex -0.587785 3.80902 0.345491
endloop
endfacet
facet normal 0.891007 -0.45399 0
outer loop
vertex -0.809017 3.58779 0
vertex -0.809017 3.58779 0.654509
vertex -0.951056 3.30902 0.904508
endloop
endfacet
facet normal 0.891007 -0.45399 0
outer loop
vertex -0.809017 3.58779 0
vertex -0.951056 3.30902 0.904508
vertex -0.951056 3.30902 0
endloop
endfacet
facet normal -0.891007 0.45399 0
outer loop
vertex -0.951056 3.30902 0
vertex -0.809017 3.58779 0.654509
vertex -0.809017 3.58779 0
endloop
endfacet
facet normal -0.891007 0.45399 0
outer loop
vertex -0.951056 3.30902 0
vertex -0.951056 3.30902 0.904508
vertex -0.809017 3.58779 0.654509
endloop
endfacet
facet normal 0.987688 -0.156435 0
outer loop
vertex -0.951056 3.30902 0
vertex -0.951056 3.30902 0.904508
vertex -1 3 1
endloop
endfacet
facet normal 0.987688 -0.156435 0
outer loop
vertex -0.951056 3.30902 0
vertex -1 3 1
vertex -1 3 0
endloop
endfacet
facet normal -0.987688 0.156435 0
outer loop
vertex -1 3 0
vertex -0.951056 3.30902 0.904508
vertex -0.951056 3.30902 0
endloop
endfacet
facet normal -0.987688 0.156435 0
outer loop
vertex -1 3 0
vertex -1 3 1
vertex -0.951056 3.30902 0.904508
endloop
endfacet
facet normal 0.987688 0.156434 -0
outer loop
vertex -1 3 0
vertex -1 3 1
vertex -0.951057 2.69098 0.904509
endloop
endfacet
facet normal 0.987688 0.156434 0
outer loop
vertex -1 3 0
vertex -0.951057 2.69098 0.904509
vertex -0.951057 2.69098 0
endloop
endfacet
facet normal -0.987688 -0.156434 0
outer loop
vertex -0.951057 2.69098 0
vertex -1 3 1
vertex -1 3 0
endloop
endfacet
facet normal -0.987688 -0.156434 0
outer loop
vertex -0.951057 2.69098 0
vertex -0.951057 2.69098 0.904509
vertex -1 3 1
endloop
endfacet
facet normal 0.891007 0.453991 -0
outer loop
vertex -0.951057 2.69098 0
vertex -0.951057 2.69098 0.904509
vertex -0.809017 2.41221 0.654508
endloop
endfacet
facet normal 0.891006 0.453991 0
outer loop
vertex -0.951057 2.69098 0
vertex -0.809017 2.41221 0.654508
vertex -0.809017 2.41221 0
endloop
endfacet
facet normal -0.891007 -0.453991 0
outer loop
vertex -0.809017 2.41221 0
vertex -0.951057 2.69098 0.904509
vertex -0.951057 2.69098 0
endloop
endfacet
facet normal -0.891006 -0.453991 0
outer loop
vertex -0.809017 2.41221 0
vertex -0.809017 2.41221 0.654508
vertex -0.951057 2.69098 0.904509
endloop
endfacet
facet normal 0.707107 0.707107 -0
outer loop
vertex -0.809017 2.41221 0
vertex -0.809017 2.41221 0.654508
vertex -0.587785 2.19098 0.345491
endloop
endfacet
facet normal 0.707107 0.707107 0
outer loop
vertex -0.809017 2.41221 0
vertex -0.587785 2.19098 0.345491
vertex -0.587785 2.19098 0
endloop
endfacet
facet normal -0.707107 -0.707107 0
outer loop
vertex -0.587785 2.19098 0
vertex -0.809017 2.41221 0.654508
vertex -0.809017 2.41221 0
endloop
endfacet
facet normal -0.707107 -0.707107 0
outer loop
vertex -0.587785 2.19098 0
vertex -0.587785 2.19098 0.345491
vertex -0.809017 2.41221 0.654508
endloop
endfacet
facet normal 0.45399 0.891007 -0
outer loop
vertex -0.587785 2.19098 0
vertex -0.587785 2.19098 0.345491
vertex -0.309017 2.04894 0.0954916
endloop
endfacet
facet normal 0.45399 0.891007 0
outer loop
vertex -0.587785 2.19098 0
vertex -0.309017 2.04894 0.0954916
vertex -0.309017 2.04894 0
endloop
endfacet
facet normal -0.45399 -0.891007 0
outer loop
vertex -0.309017 2.04894 0
vertex -0.587785 2.19098 0.345491
vertex -0.587785 2.19098 0
endloop
endfacet
facet normal -0.45399 -0.891007 0
outer loop
vertex -0.309017 2.04894 0
vertex -0.309017 2.04894 0.0954916
vertex -0.587785 2.19098 0.345491
endloop
endfacet
facet normal 0.156435 0.987688 -0
outer loop
vertex -0.309017 2.04894 0
vertex -0.309017 2.04894 0.0954916
vertex 1.19249e-08 2 1.42203e-16
endloop
endfacet
facet normal 0.156435 0.987688 0
outer loop
vertex -0.309017 2.04894 0
vertex 1.19249e-08 2 1.42203e-16
vertex 1.19249e-08 2 0
endloop
endfacet
facet normal -0.156435 -0.987688 0
outer loop
vertex 1.19249e-08 2 0
vertex -0.309017 2.04894 0.0954916
vertex -0.309017 2.04894 0
endloop
endfacet
facet normal -0.156435 -0.987688 0
outer loop
vertex 1.19249e-08 2 0
vertex 1.19249e-08 2 1.42203e-16
vertex -0.309017 2.04894 0.0954916
endloop
endfacet
facet normal -0.156435 0.987688 0
outer loop
vertex 1.19249e-08 2 0
vertex 1.19249e-08 2 1.42203e-16
vertex 0.309017 2.04894 0.0954916
endloop
endfacet
facet normal -0.156435 0.987688 0
outer loop
vertex 1.19249e-08 2 0
vertex 0.309017 2.04894 0.0954916
vertex 0.309017 2.04894 0
endloop
endfacet
facet normal 0.156435 -0.987688 0
outer loop
vertex 0.309017 2.04894 0
vertex 1.19249e-08 2 1.42203e-16
vertex 1.19249e-08 2 0
endloop
endfacet
facet normal 0.156435 -0.987688 0
outer loop
vertex 0.309017 2.04894 0
vertex 0.309017 2.04894 0.0954916
vertex 1.19249e-08 2 1.42203e-16
endloop
endfacet
facet normal -0.45399 0.891007 0
outer loop
vertex 0.309017 2.04894 0
vertex 0.309017 2.04894 0.0954916
vertex 0.587785 2.19098 0.345491
endloop
endfacet
facet normal -0.45399 0.891007 0
outer loop
vertex 0.309017 2.04894 0
vertex 0.587785 2.19098 0.345491
vertex 0.587785 2.19098 0
endloop
endfacet
facet normal 0.45399 -0.891007 0
outer loop
vertex 0.587785 2.19098 0
vertex 0.309017 2.04894 0.0954916
vertex 0.309017 2.04894 0
endloop
endfacet
facet normal 0.45399 -0.891007 0
outer loop
vertex 0.587785 2.19098 0
vertex 0.587785 2.19098 0.345491
vertex 0.309017 2.04894 0.0954916
endloop
endfacet
facet normal -0.707107 0.707107 0
outer loop
vertex 0.587785 2.19098 0
vertex 0.587785 2.19098 0.345491
vertex 0.809017 2.41221 0.654508
endloop
endfacet
facet normal -0.707107 0.707107 0
outer loop
vertex 0.587785 2.19098 0
vertex 0.809017 2.41221 0.654508
vertex 0.809017 2.41221 0
endloop
endfacet
facet normal 0.707107 -0.707107 0
outer loop
vertex 0.809017 2.41221 0
vertex 0.587785 2.19098 0.345491
vertex 0.587785 2.19098 0
endloop
endfacet
facet normal 0.707107 -0.707107 0
outer loop
vertex 0.809017 2.41221 0
vertex 0.809017 2.41221 0.654508
vertex 0.587785 2.19098 0.345491
endloop
endfacet
facet normal -0.891006 0.453991 0
outer loop
vertex 0.809017 2.41221 0
vertex 0.809017 2.41221 0.654508
vertex 0.951057 2.69098 0.904509
endloop
endfacet
facet normal -0.891007 0.453991 0
outer loop
vertex 0.809017 2.41221 0
vertex 0.951057 2.69098 0.904509
vertex 0.951057 2.69098 0
endloop
endfacet
facet normal -0.987688 0.156434 0
outer loop
vertex 0.951057 2.69098 0
vertex 1 3 1
vertex 1 3 0
endloop
endfacet
facet normal 0.891006 -0.453991 0
outer loop
vertex 0.951057 2.69098 0
vertex 0.809017 2.41221 0.654508
vertex 0.809017 2.41221 0
endloop
endfacet
facet normal -0.987688 0.156434 0
outer loop
vertex 0.951057 2.69098 0
vertex 0.951057 2.69098 0.904509
vertex 1 3 1
endloop
endfacet
facet normal 0.891007 -0.453991 0
outer loop
vertex 0.951057 2.69098 0
vertex 0.951057 2.69098 0.904509
vertex 0.809017 2.41221 0.654508
endloop
endfacet
facet normal -0.70313 0.105914 0.70313
outer loop
vertex 0 3 0
vertex 1 3 1
vertex 0.951057 3.30902 0.904509
endloop
endfacet
facet normal -0.708857 0.235183 0.664989
outer loop
vertex 0 3 0
vertex 0.951057 3.30902 0.904509
vertex 0.809017 3.58779 0.654509
endloop
endfacet
facet normal -0.707107 0.227884 0.669379
outer loop
vertex 0 3 0
vertex 0.809017 3.58779 0.654509
vertex 0.587785 3.80902 0.345491
endloop
endfacet
facet normal -0.625936 0.126105 0.769612
outer loop
vertex 0 3 0
vertex 0.587785 3.80902 0.345491
vertex 0.309017 3.95106 0.0954915
endloop
endfacet
facet normal -0.295242 -1.29054e-08 0.955423
outer loop
vertex 0 3 0
vertex 0.309017 3.95106 0.0954915
vertex -4.37114e-08 4 1.91069e-15
endloop
endfacet
facet normal 0.295242 1.29054e-08 0.955423
outer loop
vertex 0 3 0
vertex -4.37114e-08 4 1.91069e-15
vertex -0.309017 3.95106 0.0954915
endloop
endfacet
facet normal 0.625935 0.126105 0.769612
outer loop
vertex 0 3 0
vertex -0.309017 3.95106 0.0954915
vertex -0.587785 3.80902 0.345491
endloop
endfacet
facet normal 0.707107 0.227884 0.669379
outer loop
vertex 0 3 0
vertex -0.587785 3.80902 0.345491
vertex -0.809017 3.58779 0.654509
endloop
endfacet
facet normal 0.708857 0.235183 0.664989
outer loop
vertex 0 3 0
vertex -0.809017 3.58779 0.654509
vertex -0.951056 3.30902 0.904508
endloop
endfacet
facet normal 0.70313 0.105914 0.70313
outer loop
vertex 0 3 0
vertex -0.951056 3.30902 0.904508
vertex -1 3 1
endloop
endfacet
facet normal 0.70313 -0.105914 0.70313
outer loop
vertex 0 3 0
vertex -1 3 1
vertex -0.951057 2.69098 0.904509
endloop
endfacet
facet normal 0.708857 -0.235183 0.664989
outer loop
vertex 0 3 0
vertex -0.951057 2.69098 0.904509
vertex -0.809017 2.41221 0.654508
endloop
endfacet
facet normal 0.707107 -0.227884 0.66938
outer loop
vertex 0 3 0
vertex -0.809017 2.41221 0.654508
vertex -0.587785 2.19098 0.345491
endloop
endfacet
facet normal 0.625936 -0.126105 0.769612
outer loop
vertex 0 3 0
vertex -0.587785 2.19098 0.345491
vertex -0.309017 2.04894 0.0954916
endloop
endfacet
facet normal 0.295242 3.52072e-09 0.955423
outer loop
vertex 0 3 0
vertex -0.309017 2.04894 0.0954916
vertex 1.19249e-08 2 1.42203e-16
endloop
endfacet
facet normal -0.295242 -3.52072e-09 0.955423
outer loop
vertex 0 3 0
vertex 1.19249e-08 2 1.42203e-16
vertex 0.309017 2.04894 0.0954916
endloop
endfacet
facet normal -0.625936 -0.126105 0.769612
outer loop
vertex 0 3 0
vertex 0.309017 2.04894 0.0954916
vertex 0.587785 2.19098 0.345491
endloop
endfacet
facet normal -0.707107 -0.227884 0.66938
outer loop
vertex 0 3 0
vertex 0.587785 2.19098 0.345491
vertex 0.809017 2.41221 0.654508
endloop
endfacet
facet normal -0.708857 -0.235183 0.664989
outer loop
vertex 0 3 0
vertex 0.809017 2.41221 0.654508
vertex 0.951057 2.69098 0.904509
endloop
endfacet
facet normal -0.70313 -0.105914 0.70313
outer loop
vertex 0 3 0
vertex 0.951057 2.69098 0.904509
vertex 1 3 1
endloop
endfacet
endsolid fast_trimesh STL file
