solid fast_trimesh STL file
facet normal 0.471405 0.816497 0.333333
outer loop
vertex 0.942809 0 -0.333333
vertex -0.471405 0.816497 -0.333333
vertex 0 0 1
endloop
endfacet
facet normal -0 0 -1
outer loop
vertex 0.942809 0 -0.333333
vertex -0.471405 -0.816497 -0.333333
vertex -0.471405 0.816497 -0.333333
endloop
endfacet
facet normal -0.942809 0 0.333333
outer loop
vertex -0.471405 0.816497 -0.333333
vertex -0.471405 -0.816497 -0.333333
vertex 0 0 1
endloop
endfacet
facet normal 0.471405 -0.816497 0.333333
outer loop
vertex -0.471405 -0.816497 -0.333333
vertex 0.942809 0 -0.333333
vertex 0 0 1
endloop
endfacet
facet normal -0.244017 -0.910684 -0.333333
outer loop
vertex 1 -1 2
vertex -1.36603 -0.366025 2
vertex 9.27259e-08 2.2386e-07 0
endloop
endfacet
facet normal 3.97364e-08 -3.97364e-08 1
outer loop
vertex 1 -1 2
vertex 0.366026 1.36603 2
vertex -1.36603 -0.366025 2
endloop
endfacet
facet normal -0.666667 0.666667 -0.333333
outer loop
vertex -1.36603 -0.366025 2
vertex 0.366026 1.36603 2
vertex 9.27259e-08 2.2386e-07 0
endloop
endfacet
facet normal 0.910684 0.244017 -0.333333
outer loop
vertex 0.366026 1.36603 2
vertex 1 -1 2
vertex 9.27259e-08 2.2386e-07 0
endloop
endfacet
endsolid fast_trimesh STL file
