solid fast_trimesh STL file
facet normal 0 0 -1
outer loop
vertex -0.5 -0.5 -0.5
vertex 0.5 0.5 -0.5
vertex 0.5 -0.5 -0.5
endloop
endfacet
facet normal 0 0 -1
outer loop
vertex -0.5 -0.5 -0.5
vertex -0.5 0.5 -0.5
vertex 0.5 0.5 -0.5
endloop
endfacet
facet normal 0 -1 0
outer loop
vertex -0.5 -0.5 -0.5
vertex 0.5 -0.5 0.5
vertex -0.5 -0.5 0.5
endloop
endfacet
facet normal 0 -1 0
outer loop
vertex -0.5 -0.5 -0.5
vertex 0.5 -0.5 -0.5
vertex 0.5 -0.5 0.5
endloop
endfacet
facet normal 1 0 0
outer loop
vertex 0.5 -0.5 -0.5
vertex 0.5 0.5 0.5
vertex 0.5 -0.5 0.5
endloop
endfacet
facet normal 1 0 0
outer loop
vertex 0.5 -0.5 -0.5
vertex 0.5 0.5 -0.5
vertex 0.5 0.5 0.5
endloop
endfacet
facet normal 0 1 -0
outer loop
vertex 0.5 0.5 -0.5
vertex -0.5 0.5 0.5
vertex 0.5 0.5 0.5
endloop
endfacet
facet normal 0 1 0
outer loop
vertex 0.5 0.5 -0.5
vertex -0.5 0.5 -0.5
vertex -0.5 0.5 0.5
endloop
endfacet
facet normal -1 0 0
outer loop
vertex -0.5 0.5 -0.5
vertex -0.5 -0.5 0.5
vertex -0.5 0.5 0.5
endloop
endfacet
facet normal -1 0 0
outer loop
vertex -0.5 0.5 -0.5
vertex -0.5 -0.5 -0.5
vertex -0.5 -0.5 0.5
endloop
endfacet
facet normal 0 0 1
outer loop
vertex -0.5 -0.5 0.5
vertex 0.5 0.5 0.5
vertex -0.5 0.5 0.5
endloop
endfacet
facet normal 0 0 1
outer loop
vertex -0.5 -0.5 0.5
vertex 0.5 -0.5 0.5
vertex 0.5 0.5 0.5
endloop
endfacet
facet normal 0 0.707107 -0.707107
outer loop
vertex -0.5 0.5 -0.707107
vertex 0.5 1.20711 0
vertex 0.5 0.5 -0.707107
endloop
endfacet
facet normal 0 0.707107 -0.707107
outer loop
vertex -0.5 0.5 -0.707107
vertex -0.5 1.20711 0
vertex 0.5 1.20711 0
endloop
endfacet
facet normal 0 -0.707107 -0.707107
outer loop
vertex -0.5 0.5 -0.707107
vertex 0.5 -0.207107 0
vertex -0.5 -0.207107 0
endloop
endfacet
facet normal 0 -0.707107 -0.707107
outer loop
vertex -0.5 0.5 -0.707107
vertex 0.5 0.5 -0.707107
vertex 0.5 -0.207107 0
endloop
endfacet
facet normal 1 0 -0
outer loop
vertex 0.5 0.5 -0.707107
vertex 0.5 0.5 0.707107
vertex 0.5 -0.207107 0
endloop
endfacet
facet normal 1 0 0
outer loop
vertex 0.5 0.5 -0.707107
vertex 0.5 1.20711 0
vertex 0.5 0.5 0.707107
endloop
endfacet
facet normal 0 0.707107 0.707107
outer loop
vertex 0.5 1.20711 0
vertex -0.5 0.5 0.707107
vertex 0.5 0.5 0.707107
endloop
endfacet
facet normal 0 0.707107 0.707107
outer loop
vertex 0.5 1.20711 0
vertex -0.5 1.20711 0
vertex -0.5 0.5 0.707107
endloop
endfacet
facet normal -1 0 0
outer loop
vertex -0.5 1.20711 0
vertex -0.5 -0.207107 0
vertex -0.5 0.5 0.707107
endloop
endfacet
facet normal -1 -0 0
outer loop
vertex -0.5 1.20711 0
vertex -0.5 0.5 -0.707107
vertex -0.5 -0.207107 0
endloop
endfacet
facet normal 0 -0.707107 0.707107
outer loop
vertex -0.5 -0.207107 0
vertex 0.5 0.5 0.707107
vertex -0.5 0.5 0.707107
endloop
endfacet
facet normal 0 -0.707107 0.707107
outer loop
vertex -0.5 -0.207107 0
vertex 0.5 -0.207107 0
vertex 0.5 0.5 0.707107
endloop
endfacet
endsolid fast_trimesh STL file
